<?xml version="1.0" encoding="UTF-8"?>
<svg id="Layer_2" data-name="Layer 2" xmlns="http://www.w3.org/2000/svg" viewBox="0 0 32 32">
  <defs>
    <style>
      .cls-1 {
        fill: #111;
      }

      .cls-2 {
        fill: #fff;
      }
    </style>
  </defs>
  <g id="Layer_1-2" data-name="Layer 1">
    <g>
      <path class="cls-1" d="M32,16c0,3.74-1.28,7.19-3.45,9.91-.65.84-1.4,1.62-2.22,2.31-.76.65-1.59,1.22-2.46,1.71-.87.5-1.8.92-2.77,1.24-1.02.34-2.08.58-3.18.71-.63.08-1.27.12-1.92.12-.69,0-1.36-.04-2.03-.12-1.08-.14-2.12-.39-3.12-.73-.97-.33-1.9-.74-2.77-1.24-.89-.51-1.73-1.1-2.5-1.77-.82-.7-1.57-1.49-2.24-2.35-2.09-2.71-3.34-6.1-3.34-9.79C0,7.16,7.16,0,16,0s16,7.16,16,16Z"/>
      <path class="cls-2" d="M28.55,25.91c-.65.84-1.4,1.62-2.22,2.31-3.59-7.1-7.18-14.21-10.78-21.32L5.58,28.14c-.82-.7-1.57-1.49-2.24-2.35L14.06,2.93s.05-.09.07-.14l2.72-.04c3.9,7.72,7.8,15.44,11.7,23.16Z"/>
      <path class="cls-2" d="M23.87,29.93c-.87.5-1.8.92-2.77,1.24-1.78-3.51-3.55-7.02-5.32-10.53-1.64,3.5-3.29,7.01-4.93,10.51-.97-.33-1.9-.74-2.77-1.24,2.1-4.46,4.19-8.91,6.28-13.37l1.32-2.82,1.4,2.78c2.26,4.47,4.52,8.96,6.79,13.43Z"/>
      <path class="cls-2" d="M16.81,4.22l-1.26,2.67h0S5.58,28.14,5.58,28.14c-.82-.7-1.57-1.49-2.24-2.35L14.06,2.93l1.26.59,1.49.7Z"/>
      <path class="cls-2" d="M17.92,31.88c-.63.08-1.27.12-1.92.12-.69,0-1.36-.04-2.03-.12.63-1.34,1.27-2.68,1.9-4.02.69,1.34,1.37,2.68,2.05,4.02Z"/>
    </g>
  </g>
</svg>