<?xml version="1.0" encoding="UTF-8"?>
<svg id="Layer_2" data-name="Layer 2" xmlns="http://www.w3.org/2000/svg" xmlns:xlink="http://www.w3.org/1999/xlink" viewBox="0 0 1250.16 1549.66">
  <defs>
    <style>
      .cls-1 {
        fill: url(#linear-gradient-4);
      }

      .cls-2 {
        fill: url(#linear-gradient-3);
      }

      .cls-3 {
        fill: url(#linear-gradient-2);
      }

      .cls-4 {
        fill: url(#linear-gradient);
      }

      .cls-5 {
        fill: #fff;
      }

      .cls-6 {
        clip-path: url(#clippath);
      }
    </style>
    <linearGradient id="linear-gradient" x1="603.28" y1="1136.15" x2="676.8" y2="1008.81" gradientUnits="userSpaceOnUse">
      <stop offset="0" stop-color="#557cff"/>
      <stop offset=".08" stop-color="#4471e2"/>
      <stop offset=".2" stop-color="#2f64c0"/>
      <stop offset=".32" stop-color="#1e59a3"/>
      <stop offset=".45" stop-color="#11518d"/>
      <stop offset=".6" stop-color="#084b7e"/>
      <stop offset=".77" stop-color="#024874"/>
      <stop offset="1" stop-color="#014772"/>
    </linearGradient>
    <clipPath id="clippath">
      <polygon id="SVGID-2" data-name="SVGID" class="cls-4" points="559.3 1110.76 690.43 1110.76 622.43 977.41 559.3 1110.76"/>
    </clipPath>
    <linearGradient id="linear-gradient-2" x1="579.6" y1="1122.49" x2="670.13" y2="965.69" xlink:href="#linear-gradient"/>
    <linearGradient id="linear-gradient-3" x1="562.61" y1="1130.88" x2="774.25" y2="764.32" xlink:href="#linear-gradient"/>
    <linearGradient id="linear-gradient-4" x1="522.51" y1="1149.53" x2="860.47" y2="564.18" xlink:href="#linear-gradient"/>
  </defs>
  <g id="Layer_1-2" data-name="Layer 1">
    <g>
      <rect class="cls-5" width="1250.16" height="1549.66"/>
      <g>
        <g>
          <polygon id="SVGID" class="cls-4" points="559.3 1110.76 690.43 1110.76 622.43 977.41 559.3 1110.76"/>
          <g class="cls-6">
            <rect class="cls-3" x="559.3" y="977.41" width="131.14" height="133.35"/>
          </g>
        </g>
        <path class="cls-2" d="M812.37,1058.46l-58.05,29.34-14.67-29.07c-39.67-78.7-79.43-157.31-119.19-236.02-36.77,78.07-73.36,156.14-110.04,234.3l-13.77,29.43-58.87-27.62,13.77-29.43c46.1-98.27,92.2-196.53,138.38-294.7l28.35-60.41,30.07,59.5c49.81,98.54,99.62,197.07,149.34,295.61l14.67,29.07Z"/>
        <path class="cls-1" d="M940.61,1027.03l-58.05,29.25-14.67-28.98c-84.14-166.55-168.27-332.92-252.41-499.47l-247.06,526.37-58.87-27.62,274.05-583.88c.45-1,.91-1.99,1.36-2.99l58.51-.81c94.1,186.38,188.29,372.68,282.47,559.06l14.67,29.07Z"/>
      </g>
    </g>
  </g>
</svg>