<?xml version="1.0" encoding="UTF-8"?>
<svg id="Layer_2" data-name="Layer 2" xmlns="http://www.w3.org/2000/svg" xmlns:xlink="http://www.w3.org/1999/xlink" viewBox="0 0 2100 1400">
  <defs>
    <style>
      .cls-1 {
        fill: none;
      }

      .cls-2 {
        fill: url(#linear-gradient-2);
      }

      .cls-3 {
        fill: url(#linear-gradient);
      }

      .cls-4 {
        letter-spacing: .04em;
      }

      .cls-4, .cls-5, .cls-6, .cls-7 {
        fill: #562500;
      }

      .cls-4, .cls-6 {
        font-family: RadikalTrial-Bold, 'Radikal Trial';
        font-size: 99.95px;
        font-weight: 700;
      }

      .cls-8 {
        fill: #fbcaa2;
      }

      .cls-9 {
        fill: #fff;
      }

      .cls-10 {
        opacity: .19;
      }

      .cls-11 {
        clip-path: url(#clippath);
      }

      .cls-7 {
        font-family: RadikalTrial-Regular, 'Radikal Trial';
        font-size: 34.86px;
      }
    </style>
    <clipPath id="clippath">
      <rect class="cls-1" width="2100" height="1398.23"/>
    </clipPath>
    <linearGradient id="linear-gradient" x1="347.34" y1="1565.64" x2="3854.46" y2="1565.64" gradientUnits="userSpaceOnUse">
      <stop offset="0" stop-color="#f97615"/>
      <stop offset="1" stop-color="#000"/>
    </linearGradient>
    <linearGradient id="linear-gradient-2" x1="317.8" y1="706.89" x2="720.6" y2="706.89" xlink:href="#linear-gradient"/>
  </defs>
  <g id="Layer_1-2" data-name="Layer 1">
    <g>
      <rect class="cls-5" y="0" width="2100" height="1400"/>
      <g class="cls-10">
        <g class="cls-11">
          <g>
            <path class="cls-9" d="M819.73,525.53c-7.12-14.97-13.25-30.39-18.49-46.31,6.22,15.3,12.39,30.72,18.49,46.31Z"/>
            <path class="cls-8" d="M2553.88-132.36c-2.09,17.43-4.13,34.85-6.18,52.36-1.96,16.98-3.97,34.04-5.93,51.09-1.1,9.82-2.25,19.68-3.35,29.53-1.68,14.85-3.35,29.74-5.03,44.63-2.21,19.88-4.42,39.76-6.59,59.72-2.21,19.96-4.38,39.97-6.5,60.01-2.17,20.04-4.3,40.17-6.42,60.3-4.25,40.25-8.39,80.71-12.44,121.33-1.84,18.04-3.64,36.12-5.4,54.24-1.47,15.09-2.95,30.23-4.42,45.41-.33,3.03-.61,6.05-.86,9.08-1.8,18.2-3.52,36.41-5.2,54.69-1.76,18.24-3.44,36.53-5.11,54.86-.65,6.99-1.31,14.03-1.92,21.07-1.06,11.33-2.09,22.66-3.07,34.03-1.68,18.41-3.31,36.86-4.91,55.31-3.27,36.94-6.42,74-9.49,111.22-1.55,18.61-3.11,37.23-4.58,55.88-1.55,18.65-3.03,37.39-4.5,56.12-1.02,13.01-2.09,26.1-3.07,39.19-1.02,13.09-2.05,26.18-3.03,39.27-51.71-4.05-104.39-7.9-157.98-11.49-154.75-11.21-294.4-23.72-420.27-37.88-1.15-20.13-2.29-40.25-3.52-60.3-1.15-20.08-2.37-40.13-3.6-60.13-1.23-20.04-2.45-40.01-3.72-59.97-2.45-39.93-5.03-79.73-7.69-119.41-1.31-19.84-2.62-39.64-3.97-59.4-.45-6.75-.9-13.5-1.39-20.25-1.19-17.47-2.41-34.89-3.64-52.28-.65-9.61-1.35-19.23-2.05-28.8-1.27-18.04-2.54-36.04-3.85-54-.98-13.7-2-27.37-3.03-41.03-1.47-20.29-3.03-40.58-4.54-60.79-.12-1.39-.2-2.82-.33-4.21-1.96-26.1-3.97-52.16-6.01-78.13-.86-11.04-1.76-22.05-2.62-33.05-.82-10.23-1.64-20.45-2.45-30.64l-1.47-18.28c-1.06-13.66-2.21-27.29-3.31-40.87-1.19-14.73-2.41-29.45-3.64-44.14-2.17-26.02-4.38-51.99-6.59-77.89,222.94-56.98,486.91-99.85,753.66-116.42Z"/>
            <path class="cls-8" d="M1867.63,927.6c-204.49-22.95-372.7-50.15-510.51-82.75-1.31-7.12-2.62-14.15-3.97-21.23-1.35-7.08-2.7-14.11-4.05-21.19-1.35-6.99-2.66-13.95-4.01-20.9-1.39-7.08-2.78-14.15-4.17-21.19-1.31-6.67-2.62-13.33-3.97-20-1.31-6.67-2.66-13.29-4.01-19.92-.94-4.62-1.88-9.25-2.82-13.87-4.83-23.72-9.78-47.29-14.81-70.73-1.39-6.38-2.74-12.8-4.13-19.18-1.35-6.38-2.74-12.72-4.17-19.1-.16-.86-.37-1.72-.57-2.58-2.95-13.54-5.97-27.04-8.96-40.45-1.6-7.16-3.23-14.28-4.87-21.35-3.23-14.24-6.5-28.39-9.82-42.5-.49-2.17-1.02-4.33-1.51-6.5-1.19-4.91-2.33-9.78-3.48-14.6-.61-2.7-1.27-5.4-1.92-8.1-1.68-7.12-3.35-14.2-5.07-21.27-.12-.49-.25-1.02-.37-1.51-.9-3.72-1.8-7.4-2.7-11.13-2.25-9.25-4.5-18.45-6.75-27.65-9.69-39.31-19.59-78.17-29.7-116.54-1.76-6.75-3.56-13.5-5.36-20.25-5.36-20.21-10.76-40.29-16.24-60.21,154.79-78.01,341.2-152.79,561.89-211.32,9.45-2.49,19.02-4.99,28.63-7.49,2.21,25.89,4.42,51.87,6.59,77.89,1.23,14.68,2.45,29.41,3.64,44.14,1.1,13.58,2.25,27.2,3.31,40.87l1.47,18.28c.82,10.19,1.64,20.41,2.45,30.64.86,11,1.76,22.01,2.62,33.05,2.05,25.98,4.05,52.03,6.01,78.13.12,1.39.2,2.82.33,4.21,1.51,20.21,3.07,40.5,4.54,60.79,1.02,13.66,2.05,27.33,3.03,41.03,1.31,17.96,2.58,35.96,3.85,54,.7,9.57,1.39,19.18,2.05,28.8,1.23,17.39,2.45,34.81,3.64,52.28.49,6.75.94,13.5,1.39,20.25,1.35,19.76,2.66,39.56,3.97,59.4,2.62,39.68,5.19,79.48,7.69,119.41,1.27,19.96,2.5,39.93,3.72,59.97,1.23,20,2.41,40.05,3.6,60.13,1.19,20.05,2.37,40.17,3.52,60.3Z"/>
            <path class="cls-8" d="M1357.12,844.85c-313.14-74-469.32-175.9-537.39-319.32-6.1-15.59-12.27-31.01-18.49-46.31-.04-.12-.08-.24-.12-.37-1.47-4.38-2.86-8.84-4.17-13.29,98.3-78.74,234.56-172.87,412.75-262.7,5.48,19.92,10.88,40.01,16.24,60.21,1.8,6.75,3.6,13.5,5.36,20.25,10.1,38.37,20,77.23,29.7,116.54,2.25,9.2,4.5,18.41,6.75,27.65.9,3.72,1.8,7.4,2.7,11.13.12.49.25,1.02.37,1.51,1.72,7.08,3.4,14.15,5.07,21.27.65,2.7,1.31,5.4,1.92,8.1,1.15,4.83,2.29,9.69,3.48,14.6.49,2.17,1.02,4.34,1.51,6.5,3.31,14.11,6.59,28.27,9.82,42.5,1.64,7.08,3.27,14.2,4.87,21.35,2.99,13.42,6.01,26.92,8.96,40.45.2.86.41,1.72.57,2.58,1.43,6.38,2.82,12.72,4.17,19.1,1.39,6.38,2.74,12.8,4.13,19.18,5.03,23.44,9.94,47,14.81,70.73.94,4.62,1.88,9.24,2.82,13.87,1.35,6.63,2.7,13.25,4.01,19.92,1.35,6.67,2.66,13.34,3.97,20,1.39,7.04,2.78,14.11,4.17,21.19,1.35,6.95,2.66,13.91,4.01,20.9,1.35,7.08,2.7,14.11,4.05,21.19,1.35,7.08,2.66,14.11,3.97,21.23Z"/>
            <path class="cls-9" d="M801.12,478.86c-1.72-4.17-3.4-8.35-5.11-12.52.33-.25.61-.49.94-.78,1.31,4.46,2.7,8.92,4.17,13.29Z"/>
            <path class="cls-3" d="M3854.46,1201.72c-128.57,487.73-257.18,975.5-385.79,1463.22-38.53-140.02-143.99-250.51-354.46-335.64-85-34.4-187.15-64.67-308.92-91.1-120.8-26.18-260.94-48.6-422.89-67.5-139.2-16.2-294.53-29.82-467.52-40.99-2.25-.16-4.46-.29-6.71-.45-147.59-10.63-287.78-23.28-420.93-37.92-123.99-13.62-241.84-28.96-353.84-46.06-285.08-43.4-532.23-97.93-745.73-163.26-16.36-168.13-26.26-327.09-35.55-479.22-2.13-34.81-3.76-63.44-4.79-82.26v-256.69c.16-4.17.37-8.35.57-12.52,2.25-46.51,16.77-91.55,42.05-130.65,53.14-82.18,126.4-182.65,223.96-286.92,27.37-29.21,86.84-91.06,182.07-167.43,1.72,4.17,3.4,8.35,5.11,12.52.04.12.08.25.12.37,5.24,15.91,11.37,31.33,18.49,46.31,68.07,143.42,224.25,245.31,537.39,319.32,137.81,32.6,306.02,59.8,510.51,82.75,125.87,14.15,265.52,26.67,420.27,37.88,53.59,3.6,106.28,7.45,157.98,11.49,168.45,13.21,327.05,28.88,476.36,47.04,148.74,18.04,288.19,38.58,418.88,61.61,188.99,33.38,359.61,72,513.34,116.09Z"/>
          </g>
        </g>
      </g>
      <rect class="cls-9" x="1050" y="0" width="1050" height="1400"/>
      <circle class="cls-5" cx="1050" cy="175.92" r="94.5"/>
      <g>
        <circle class="cls-5" cx="1939.2" cy="1298.81" r="31.69"/>
        <circle class="cls-8" cx="1970.89" cy="1298.81" r="31.69"/>
      </g>
      <g>
        <g>
          <text class="cls-6" transform="translate(1358.99 647.02)"><tspan x="0" y="0">FURNITURE</tspan></text>
          <g>
            <text class="cls-4" transform="translate(1140.15 643.75)"><tspan x="0" y="0" xml:space="preserve">I   A</tspan></text>
            <path class="cls-5" d="M1215.73,643.7c-14.15.71-26.85-2.02-36.18-7.6l9.79-12.59c6.39,4.67,16.83,7.41,26.35,6.94,9.52-.48,14.89-3.63,14.63-8.81-.02-.36-.06-.7-.14-1.03h0c-.39-1.67-1.58-3.01-4.02-4.1-.99-.45-2.17-.84-3.59-1.21-1.41-.36-3.05-.69-4.94-.98-1.63-.25-3.45-.48-5.48-.69-.03,0-.05,0-.08,0-1.73-.19-3.37-.4-4.94-.63-1.45-.21-2.82-.45-4.13-.69-3.33-.64-6.21-1.39-8.7-2.25-10.02-3.48-13.51-8.8-13.87-15.87-.64-12.65,12.82-22.45,32.49-23.44,13.15-.66,25.22,1.91,33.33,5.91l-8.52,12.82c-6.2-3.24-14.5-6-24.27-5.5-8.15.4-14.15,3.3-13.91,8.38.03.44.09.85.18,1.24.02.05.03.11.04.16.06.19.12.38.2.55.74,1.72,2.53,2.99,6.17,3.99,1.61.45,3.57.84,5.97,1.19,1.47.22,3.11.44,4.92.63.63.07,1.24.14,1.85.21,1.97.22,3.83.48,5.57.76,1.74.27,3.37.58,4.89.9,2.21.48,4.2,1,5.98,1.6,9.99,3.27,13.7,8.33,14.06,15.65.69,13.61-12.01,23.37-33.69,24.46Z"/>
          </g>
        </g>
        <text class="cls-7" transform="translate(1144.5 718.26)"><tspan x="0" y="0">A contemporary furniture brand rooted in the values</tspan><tspan x="0" y="41.84">of comfort, craftsmanship, and clean design. </tspan><tspan x="0" y="83.67">The brand is built for individuals and families who value</tspan><tspan x="0" y="125.51">intentional living, combining functional pieces</tspan><tspan x="0" y="167.35">with aesthetic appeal to elevate their spaces.</tspan></text>
      </g>
      <g>
        <path class="cls-9" d="M372.07,587.42c-.82-1.72-1.53-3.49-2.13-5.31.72,1.75,1.43,3.52,2.13,5.31Z"/>
        <path class="cls-8" d="M676.3,833.14c-.5,1.87-.99,3.75-1.48,5.62-2.03,7.68-6.97,14.26-13.78,18.35l-26.7,16.02-13.39,8.03c-3.77,2.26-7.99,3.68-12.37,4.16-2.14.24-4.31.46-6.49.68-16.15,1.61-33.48,2.82-51.88,3.37-16.4.49-33.64.45-51.64-.27-12.87-.51-26.12-1.38-39.73-2.66-4.98-.47-9.89-.98-14.74-1.54-15.7-1.8-30.72-4.02-45.01-6.56-9.27-1.64-18.22-3.41-26.85-5.28-7.82-1.68-14.66-6.38-19.03-13.07-8.52-13.04-18.21-28.94-24.98-71.27-2.53-15.84-4.37-30.97-5.79-45.5,24.52,7.5,52.91,13.76,85.65,18.75,12.86,1.96,26.4,3.72,40.64,5.29,15.29,1.68,31.39,3.13,48.34,4.35.26.02.52.04.77.06,19.87,1.28,37.71,2.84,53.7,4.7,18.6,2.17,34.69,4.75,48.57,7.75,13.98,3.04,25.72,6.52,35.48,10.47,24.17,9.77,36.28,22.46,40.71,38.55Z"/>
        <path class="cls-8" d="M739.55,585.32v6.53c-.16,1.54-.45,3.07-.85,4.58-6.03,22.88-12.06,45.77-18.09,68.65-17.66-5.06-37.26-9.5-58.96-13.33-15.01-2.64-31.03-5-48.11-7.07-17.15-2.09-35.36-3.89-54.71-5.41-5.94-.46-11.99-.9-18.14-1.32-17.78-1.28-33.82-2.72-48.27-4.35-23.49-2.63-42.81-5.76-58.63-9.5-35.97-8.5-53.91-20.2-61.72-36.68-.7-1.79-1.41-3.56-2.13-5.31,0-.02-.01-.03-.01-.05-.17-.5-.33-1.01-.48-1.52,11.29-9.05,26.94-19.86,47.4-30.17,17.78-8.96,39.19-17.55,64.54-24.28,1.08-.28,2.18-.57,3.29-.85,25.6-6.55,55.92-11.47,86.55-13.38,24.73-1.53,49.67-1.1,72.5,2.04,25.08,3.44,47.62,10.15,64.53,21.09,10.95,7.07,19.54,15.92,24.95,26.81,4.2,8.46,5.8,16.79,6.34,23.52Z"/>
        <path class="cls-9" d="M369.93,582.06c-.2-.48-.39-.96-.59-1.43.04-.03.07-.06.11-.09.15.51.31,1.02.48,1.52Z"/>
        <path class="cls-2" d="M720.6,665.08c-14.77,56.02-29.54,112.04-44.31,168.06-4.43-16.09-16.54-28.78-40.71-38.55-9.76-3.95-21.5-7.43-35.48-10.47-13.88-3-29.97-5.58-48.57-7.75-15.99-1.86-33.83-3.42-53.7-4.7-.25-.02-.51-.04-.77-.06-16.95-1.22-33.05-2.67-48.34-4.35-14.24-1.57-27.78-3.33-40.64-5.29-32.74-4.99-61.13-11.25-85.65-18.75-1.87-19.31-3.01-37.57-4.08-55.04-.24-4-.43-7.29-.55-9.45v-29.48c.02-.48.04-.96.07-1.44.26-5.34,1.92-10.51,4.83-15,6.1-9.44,14.51-20.98,25.72-32.95,3.14-3.36,9.97-10.46,20.91-19.23.2.47.39.95.59,1.43,0,.02.01.03.01.05.6,1.82,1.31,3.59,2.13,5.31,7.81,16.48,25.75,28.18,61.72,36.68,15.82,3.74,35.14,6.87,58.63,9.5,14.45,1.63,30.49,3.07,48.27,4.35,6.15.42,12.2.86,18.14,1.32,19.35,1.52,37.56,3.32,54.71,5.41,17.08,2.07,33.1,4.43,48.11,7.07,21.7,3.83,41.3,8.27,58.96,13.33Z"/>
      </g>
    </g>
  </g>
</svg>