<?xml version="1.0" encoding="UTF-8"?>
<svg id="Layer_2" data-name="Layer 2" xmlns="http://www.w3.org/2000/svg" xmlns:xlink="http://www.w3.org/1999/xlink" viewBox="0 0 2100 1405.36">
  <defs>
    <style>
      .cls-1 {
        fill: none;
      }

      .cls-2 {
        letter-spacing: 0em;
      }

      .cls-3 {
        fill: #f4fff9;
      }

      .cls-4 {
        font-size: 127.7px;
      }

      .cls-4, .cls-5, .cls-6 {
        fill: #333;
        font-family: BelganAesthetic-Regular, 'Belgan Aesthetic';
      }

      .cls-5 {
        font-size: 129.98px;
      }

      .cls-6 {
        font-size: 130.54px;
      }

      .cls-7 {
        fill: #c3996d;
      }

      .cls-8 {
        letter-spacing: -.02em;
      }

      .cls-9 {
        fill: url(#New_Pattern_10);
        opacity: .21;
      }
    </style>
    <pattern id="New_Pattern_10" data-name="New Pattern 10" x="0" y="0" width="248.37" height="394.73" patternTransform="translate(-111.71 -807.51)" patternUnits="userSpaceOnUse" viewBox="0 0 248.37 394.73">
      <g>
        <rect class="cls-1" width="248.37" height="394.73"/>
        <g>
          <path class="cls-7" d="M214.71,411.9c-2.73,2.5-5.6,4.7-8.59,6.61-8.42,5.37-17.41,8.1-26.72,8.1h-.04c.53-.59,1.07-1.17,1.64-1.73,1.61-1.61,3.34-3.07,5.17-4.38h0c6.47-1.07,12.71-3.66,18.52-7.66,0,0,0,0,0,0,3.19-.59,6.54-.9,10.01-.94ZM214.71,411.9c-2.73,2.5-5.6,4.7-8.59,6.61-8.42,5.37-17.41,8.1-26.72,8.1h-.04c.53-.59,1.07-1.17,1.64-1.73,1.61-1.61,3.34-3.07,5.17-4.38h0c6.47-1.07,12.71-3.66,18.52-7.66,0,0,0,0,0,0,3.19-.59,6.54-.9,10.01-.94ZM136.72,394.69c10.84,16.18,25.05,25.43,40.32,26.29-1.61,1.61-3.09,3.32-4.43,5.13h0c-6.91-1.01-13.61-3.57-19.97-7.65-8.03-5.14-15.15-12.43-21.18-21.67-.18-.25-.32-.48-.43-.67l-.83-1.39.79-1.41c.15-.27.3-.49.43-.69,6.04-9.26,13.18-16.55,21.23-21.68,6.37-4.06,13.05-6.61,19.96-7.61,1.35,1.81,2.83,3.52,4.43,5.13-15.27.86-29.48,10.08-40.32,26.21ZM214.7,377.6c-3.47-.04-6.81-.35-10.01-.94-5.81-4-12.04-6.6-18.51-7.68-1.84-1.32-3.57-2.79-5.18-4.4-.56-.56-1.1-1.13-1.63-1.72h.06c9.31.02,18.29,2.76,26.71,8.14,2.98,1.9,5.84,4.11,8.56,6.6Z"/>
          <path class="cls-7" d="M216.99,318.97c-.33,2.23-.49,4.49-.49,6.76-11.41-10.19-27.97-13.71-47.04-9.98-3.77,19.1-.27,35.69,9.92,47.1-2.27,0-4.53.16-6.76.49-4.18-5.6-7.1-12.15-8.72-19.53-2.04-9.31-1.92-19.5.35-30.3.05-.3.12-.57.17-.78l.39-1.57,1.56-.44c.3-.08.58-.14.8-.18,10.81-2.27,21.02-2.38,30.34-.32,7.37,1.63,13.9,4.56,19.49,8.73ZM204.69,376.65c2.68,1.84,5.26,3.98,7.74,6.41-3.7-.16-7.29-.63-10.75-1.4-9.75-2.15-18.04-6.59-24.62-13.17,0,0-.02-.02-.03-.03.78-.05,1.57-.07,2.36-.07h.03c2.27,0,4.53.19,6.75.56,5.33,3.82,11.57,6.4,18.51,7.68ZM236.61,366.38c-1.93-1.7-3.73-3.47-5.4-5.3-.04-3.47-.35-6.81-.94-10.01-1.28-6.94-3.85-13.19-7.66-18.52-.37-2.23-.55-4.49-.55-6.77,0-.79.02-1.58.07-2.36.01.01.03.03.04.04h0c6.57,6.6,10.99,14.89,13.13,24.64.76,3.45,1.22,7.03,1.38,10.72.11,2.48.09,5-.07,7.57ZM212.43,383.07c-3.7-.16-7.29-.63-10.75-1.4-9.75-2.15-18.04-6.59-24.62-13.17,0,0-.02-.02-.03-.03.78-.05,1.57-.07,2.36-.07h.03c2.27,0,4.53.19,6.75.56,5.33,3.82,11.57,6.4,18.51,7.68,2.68,1.84,5.26,3.98,7.74,6.41Z"/>
          <path class="cls-7" d="M220,383c-1.5.09-2.99.14-4.47.14-1.04,0-2.08-.02-3.1-.07-2.48-2.43-5.07-4.57-7.74-6.41,3.19.59,6.54.91,10.01.94,1.83,1.67,3.6,3.47,5.3,5.4Z"/>
          <path class="cls-7" d="M280.24,325.73v.07c-.02,9.31-2.75,18.29-8.14,26.71-1.91,2.98-4.11,5.84-6.6,8.56-1.67,1.83-3.47,3.6-5.4,5.3-2.93,2.59-6.15,5.04-9.66,7.32l-.14.09c-.17.11-.38.25-.63.39l-1.39.77-1.37-.81c-.23-.13-.48-.3-.74-.48-3.47-2.27-6.67-4.7-9.57-7.27-1.93-1.7-3.73-3.47-5.4-5.3-2.5-2.73-4.71-5.6-6.62-8.59-5.37-8.42-8.1-17.41-8.1-26.72v-.04c.59.53,1.17,1.07,1.73,1.64,1.61,1.61,3.06,3.34,4.38,5.17,1.07,6.47,3.66,12.71,7.66,18.52,1.84,2.67,3.98,5.26,6.41,7.74,3.35,3.42,7.25,6.64,11.67,9.61,4.42-2.97,8.33-6.19,11.69-9.62,2.43-2.48,4.57-5.06,6.41-7.74h0c4-5.81,6.6-12.04,7.68-18.51h0c1.32-1.84,2.79-3.57,4.4-5.19.56-.56,1.13-1.1,1.72-1.63ZM260.1,366.36c-2.93,2.59-6.15,5.04-9.66,7.32l-.14.09c-.17.11-.38.25-.63.39l-1.39.77-1.37-.81c-.23-.13-.48-.3-.74-.48-3.47-2.27-6.67-4.7-9.57-7.27-1.93-1.7-3.73-3.47-5.4-5.3-2.5-2.73-4.71-5.6-6.62-8.59-5.37-8.42-8.1-17.41-8.1-26.72v-.04c.59.53,1.17,1.07,1.73,1.64,1.61,1.61,3.06,3.34,4.38,5.17,1.07,6.47,3.66,12.71,7.66,18.52,1.84,2.67,3.98,5.26,6.41,7.74,3.35,3.42,7.25,6.64,11.67,9.61,4.42-2.97,8.33-6.19,11.69-9.62-.11,2.48-.09,5,.07,7.57ZM279.75,318.97c-1.81,1.35-3.52,2.83-5.13,4.43-.86-15.27-10.08-29.48-26.21-40.32-16.18,10.84-25.43,25.05-26.29,40.32-1.61-1.61-3.32-3.09-5.13-4.44,1.01-6.91,3.57-13.61,7.65-19.98,5.14-8.03,12.43-15.15,21.67-21.18.25-.18.48-.32.67-.43l1.38-.83,1.41.79c.27.15.51.31.7.44,9.25,6.04,16.55,13.18,21.68,21.23,4.06,6.37,6.61,13.05,7.61,19.96ZM260.1,366.36c-2.93,2.59-6.15,5.04-9.66,7.32l-.14.09c-.17.11-.38.25-.63.39l-1.39.77-1.37-.81c-.23-.13-.48-.3-.74-.48-3.47-2.27-6.67-4.7-9.57-7.27-1.93-1.7-3.73-3.47-5.4-5.3-2.5-2.73-4.71-5.6-6.62-8.59-5.37-8.42-8.1-17.41-8.1-26.72v-.04c.59.53,1.17,1.07,1.73,1.64,1.61,1.61,3.06,3.34,4.38,5.17,1.07,6.47,3.66,12.71,7.66,18.52,1.84,2.67,3.98,5.26,6.41,7.74,3.35,3.42,7.25,6.64,11.67,9.61,4.42-2.97,8.33-6.19,11.69-9.62-.11,2.48-.09,5,.07,7.57Z"/>
          <path class="cls-7" d="M247.25,386c1.48,0,2.68,1.2,2.68,2.68s-1.2,2.68-2.68,2.68-2.68-1.2-2.68-2.68,1.2-2.68,2.68-2.68Z"/>
          <path class="cls-7" d="M309.19,367.16c-1.43.37-2.86.77-4.27,1.22-.02,0-.03,0-.05.02-6.34,2.02-12.45,4.91-17.68,8.9-1.67,1.27-3.25,2.66-4.73,4.16-.02.03-.05.06-.08.09-.49.5-.97,1.02-1.44,1.55-1.13,1.29-2.18,2.66-3.15,4.12-2.18,3.15-3.98,6.6-5.95,9.95,0,.02-.02.03-.03.05h0c-.33.54-.67,1.09-1.04,1.63-.51.76-1.07,1.51-1.74,2.18,0,0,0,0,0,0-.53.52-1.12.99-1.8,1.37-1.96,1.13-4.16.7-5.86-.52-.19-.13-.36-.28-.53-.44-.09-.08-.17-.16-.25-.24t0,0c-.44-.43-.85-.9-1.17-1.42-3.1-4.37-4.5-13.74-9.04-16.82,0,0,0,0-.02-.02-.47-.32-.97-.56-1.52-.74-.51-.19-1-.18-1.48-.07-.65.14-1.31.48-2.02.73-2.52.96-5.16,1.67-7.81,2.19-2.96.65-6.06.92-9.08,1.19-.92.08-1.82.17-2.7.26-.05,0-.1,0-.14.02,1.93.05,3.84.25,5.66.67t.02,0c3.87,1.29,6.23,3.32,7.45,4.55,3.22,3.27,4.4,7.06,5.26,9.85.71,2.3,1.1,4.51,1.44,6.47.52,2.98.5,3.99,1.06,6.62.06.29.12.57.18.84.49,2.26.79,3.52,1.41,4.81.13.27.26.53.41.79,1.69,3.02,4.31,4.86,7.8,7.32,1.44,1.02,2.75,1.79,3.77,2.34.08.04.15.08.22.12.8.43,1.39.71,1.68.85,1.17.55,2.38,1.03,3.8,1.52.46.16.95.32,1.47.48.12.04.19.06.26.08.03,0,.06.02.09.03.05.01.11.03.18.06.03,0,.07.02.11.03,1.12.36,2.03.69,2.65.93.04.02.08.03.12.05.57.82,1.13,1.63,1.69,2.45.25.38.51.77.77,1.18,1.11,1.76,2.25,3.88,3.26,6.36.17.42.33.84.48,1.25,0,.02.02.04.03.07,1.46,3.95,2.09,7.52,2.37,10.26-.87-3.36-3.5-11.56-11.28-17.53-.54-.42-1.08-.8-1.62-1.16h0c-.2-.13-.39-.26-.58-.38-1.92-1.22-3.78-2.08-5.41-2.7-.18-.07-.37-.14-.54-.2h0c-1.7-.68-3.6-1.56-5.57-2.69-3.04-1.74-6.06-3.59-8.32-6.25-.48-.57-.93-1.17-1.33-1.82-.3-.47-.57-.96-.82-1.48-.59-1.26-.96-2.58-1.23-3.92-.12-.6-.22-1.2-.31-1.8-.07-.43-.13-.85-.19-1.27-.22-1.85-.48-3.66-.79-5.45-.06-.58-.15-1.46-.31-2.52-.44-2.9-1.1-5.34-1.45-6.37-1.03-3.12-4.21-8.61-10.06-11.26-1.79-.81-3.57-1.24-5.19-1.46-1.73-.24-3.29-.25-4.51-.26-.98,0-1.88.04-2.68.1-.79.07-1.49.16-2.07.25-.51.06-1.02.11-1.55.15-.56.05-1.11.09-1.64.13.74-.35,1.71-.78,2.86-1.24.43-.17.88-.34,1.36-.51.93-.33,1.97-.67,3.22-1.03.9-.26,1.72-.49,2.58-.7,1.08-.27,2.21-.53,3.6-.79,5.13-.98,10.13-1.84,15.01-3.57.39-.13.77-.27,1.14-.42.79-.29,1.56-.62,2.34-.96,1.72-.87,3.9-1.69,5.89-1.07,1.22.26,2.39.83,3.38,1.53.86.65,1.61,1.38,2.27,2.16,3.42,4.03,5.75,11.92,6.88,13.81.05.09.16.26.34.46.9.98,2.23,1,2.29,1.01,1.11,0,1.87-.59,2.07-.76,0,0,0,0,0,0,.41-.55.8-1.14,1.18-1.75.66-1.06,1.29-2.16,1.92-3.17.15-.25.31-.51.46-.76,1.65-2.7,3.47-5.4,5.57-7.9,1.21-1.44,2.51-2.8,3.91-4.06.49-.45,1-.88,1.51-1.3.99-.81,2.01-1.57,3.06-2.27.6-.4,1.2-.79,1.81-1.16.05-.03.09-.06.14-.09,5.66-3.76,12.99-6.43,22.6-6.89Z"/>
        </g>
        <g>
          <path class="cls-7" d="M31.87,325.73v.07c-.02,9.31-2.75,18.29-8.14,26.71-1.91,2.98-4.11,5.84-6.6,8.56-1.67,1.83-3.47,3.6-5.4,5.3-2.93,2.59-6.15,5.04-9.66,7.32l-.14.09c-.17.11-.38.25-.63.39l-1.39.77-1.37-.81c-.23-.13-.48-.3-.74-.48-3.47-2.27-6.67-4.7-9.57-7.27-1.93-1.7-3.73-3.47-5.4-5.3-2.5-2.73-4.71-5.6-6.62-8.59-5.37-8.42-8.1-17.41-8.1-26.72v-.04c.59.53,1.17,1.07,1.73,1.64,1.61,1.61,3.06,3.34,4.38,5.17,1.07,6.47,3.66,12.71,7.66,18.52,1.84,2.67,3.98,5.26,6.41,7.74,3.35,3.42,7.25,6.64,11.67,9.61,4.42-2.97,8.33-6.19,11.69-9.62,2.43-2.48,4.57-5.06,6.41-7.74h0c4-5.81,6.6-12.04,7.68-18.51h0c1.32-1.84,2.79-3.57,4.4-5.19.56-.56,1.13-1.1,1.72-1.63ZM11.73,366.36c-2.93,2.59-6.15,5.04-9.66,7.32l-.14.09c-.17.11-.38.25-.63.39l-1.39.77-1.37-.81c-.23-.13-.48-.3-.74-.48-3.47-2.27-6.67-4.7-9.57-7.27-1.93-1.7-3.73-3.47-5.4-5.3-2.5-2.73-4.71-5.6-6.62-8.59-5.37-8.42-8.1-17.41-8.1-26.72v-.04c.59.53,1.17,1.07,1.73,1.64,1.61,1.61,3.06,3.34,4.38,5.17,1.07,6.47,3.66,12.71,7.66,18.52,1.84,2.67,3.98,5.26,6.41,7.74,3.35,3.42,7.25,6.64,11.67,9.61,4.42-2.97,8.33-6.19,11.69-9.62-.11,2.48-.09,5,.07,7.57ZM31.38,318.97c-1.81,1.35-3.52,2.83-5.13,4.43-.86-15.27-10.08-29.48-26.21-40.32-16.18,10.84-25.43,25.05-26.29,40.32-1.61-1.61-3.32-3.09-5.13-4.44,1.01-6.91,3.57-13.61,7.65-19.98,5.14-8.03,12.43-15.15,21.67-21.18.25-.18.48-.32.67-.43l1.38-.83,1.41.79c.27.15.51.31.7.44,9.25,6.04,16.55,13.18,21.68,21.23,4.06,6.37,6.61,13.05,7.61,19.96ZM11.73,366.36c-2.93,2.59-6.15,5.04-9.66,7.32l-.14.09c-.17.11-.38.25-.63.39l-1.39.77-1.37-.81c-.23-.13-.48-.3-.74-.48-3.47-2.27-6.67-4.7-9.57-7.27-1.93-1.7-3.73-3.47-5.4-5.3-2.5-2.73-4.71-5.6-6.62-8.59-5.37-8.42-8.1-17.41-8.1-26.72v-.04c.59.53,1.17,1.07,1.73,1.64,1.61,1.61,3.06,3.34,4.38,5.17,1.07,6.47,3.66,12.71,7.66,18.52,1.84,2.67,3.98,5.26,6.41,7.74,3.35,3.42,7.25,6.64,11.67,9.61,4.42-2.97,8.33-6.19,11.69-9.62-.11,2.48-.09,5,.07,7.57Z"/>
          <path class="cls-7" d="M71.33,368.48s-.03.03-.04.04h0c-6.59,6.57-14.88,10.99-24.64,13.14-3.45.76-7.03,1.22-10.72,1.38-1.02.05-2.05.07-3.08.07h-.26c-1.39,0-2.81-.05-4.23-.14-.18-.01-.37-.02-.56-.04,1.21-1.44,2.51-2.8,3.91-4.06.49-.45,1-.88,1.51-1.3.14,0,.29,0,.43,0,1.76-.02,3.48-.11,5.17-.27,1.65-.16,3.26-.38,4.84-.67,6.94-1.28,13.18-3.85,18.52-7.66,2.23-.37,4.5-.55,6.78-.55.79,0,1.58.02,2.36.07ZM26.25,323.4c.05.78.07,1.57.07,2.35v.03c0,2.27-.19,4.53-.56,6.75h0c-3.82,5.33-6.4,11.57-7.68,18.51h0c-.59,3.2-.9,6.54-.94,10.01-1.67,1.83-3.47,3.6-5.4,5.3-.16-2.57-.18-5.09-.07-7.57.16-3.7.63-7.29,1.4-10.75,2.16-9.75,6.59-18.04,13.17-24.62l.02-.02ZM84.5,343.86c-1.63,7.37-4.56,13.9-8.73,19.49-2.23-.33-4.49-.49-6.76-.49,10.19-11.41,13.71-27.97,9.98-47.05-19.11-3.77-35.7-.27-47.1,9.92,0-2.27-.16-4.53-.49-6.76,5.6-4.18,12.15-7.1,19.53-8.72,9.31-2.04,19.5-1.93,30.3.35.3.05.57.11.78.16l1.57.39.43,1.56c.08.3.14.56.18.8,2.27,10.82,2.38,21.02.32,30.35ZM26.25,323.4c.05.78.07,1.57.07,2.35v.03c0,2.27-.19,4.53-.56,6.75h0c-3.82,5.33-6.4,11.57-7.68,18.51h0c-.59,3.2-.9,6.54-.94,10.01-1.67,1.83-3.47,3.6-5.4,5.3-.16-2.57-.18-5.09-.07-7.57.16-3.7.63-7.29,1.4-10.75,2.16-9.75,6.59-18.04,13.17-24.62l.02-.02Z"/>
          <path class="cls-7" d="M69,426.61h-.06c-9.31-.02-18.29-2.76-26.71-8.14-2.98-1.91-5.84-4.11-8.56-6.6-1.83-1.67-3.6-3.47-5.3-5.4,2.57-.16,5.09-.18,7.57-.07,2.48,2.43,5.07,4.57,7.74,6.41,5.81,4.01,12.04,6.6,18.51,7.68,1.84,1.32,3.57,2.79,5.18,4.4.56.56,1.1,1.13,1.63,1.72ZM69,362.86c-.53.59-1.07,1.17-1.64,1.73-1.61,1.61-3.34,3.07-5.18,4.38-6.47,1.07-12.7,3.66-18.52,7.66-3.36,2.31-5.99,4.77-7.74,6.41-4.26,4-7.4,7.77-9.55,10.59-.51.69-1.03,1.39-1.54,2.08-.79,1.08-1.58,2.15-2.36,3.22-.02-.03-.04-.06-.06-.08.37-.54.7-1.09,1.04-1.62h0s.02-.04.03-.05c1.98-3.35,3.78-6.8,5.95-9.95.14-.22.29-.43.44-.65.1-.14.2-.29.3-.43.1-.15.21-.29.31-.43.42-.57.85-1.13,1.3-1.67.08-.1.17-.2.25-.3.04-.05.08-.1.12-.15.14-.16.28-.33.42-.49.14-.16.28-.32.42-.48.07-.07.13-.14.2-.21.05-.05.1-.11.15-.16.22-.24.44-.47.67-.71.04-.04.06-.06.08-.09.17-.18.35-.36.53-.53.02-.02.05-.05.07-.07.16-.16.32-.31.48-.47.02-.02.05-.05.07-.07.18-.17.36-.34.55-.51.19-.18.39-.35.59-.53.34-.3.69-.6,1.04-.88.11-.09.21-.17.32-.26.36-.29.72-.57,1.08-.85.32-.24.64-.48.97-.72.08-.06.15-.11.23-.17,3.06-2.18,6.39-4.02,9.87-5.54.14-.06.28-.12.42-.18.87-.38,1.75-.73,2.64-1.06.19-.08.39-.15.59-.22.2-.08.41-.15.61-.22.25-.09.51-.18.76-.27.53-.18,1.05-.36,1.58-.52.02,0,.03-.02.05-.02,1.41-.45,2.84-.85,4.27-1.22-9.61.45-16.94,3.13-22.6,6.89-.05.03-.09.06-.14.09-.61.37-1.21.76-1.81,1.16,1.93-1.59,3.92-3.03,5.97-4.34,8.42-5.37,17.41-8.1,26.72-8.1h.04ZM118.18,394.72l-.79,1.41c-.15.27-.3.5-.43.69-6.04,9.25-13.18,16.55-21.23,21.68-6.36,4.06-13.05,6.61-19.96,7.61-1.35-1.81-2.83-3.52-4.43-5.13,15.27-.86,29.48-10.08,40.32-26.21-10.84-16.18-25.05-25.43-40.32-26.29,1.61-1.61,3.09-3.32,4.44-5.13,6.91,1.01,13.61,3.57,19.98,7.65,8.03,5.14,15.15,12.43,21.18,21.67.18.25.32.48.43.67l.83,1.38ZM68.96,362.86h.04c-.53.59-1.07,1.17-1.64,1.73-1.61,1.61-3.34,3.07-5.18,4.38-6.47,1.07-12.7,3.66-18.52,7.66-3.36,2.31-5.99,4.77-7.74,6.41-4.26,4-7.4,7.77-9.55,10.59-.51.69-1.03,1.39-1.54,2.08-.79,1.08-1.58,2.15-2.36,3.22-.02-.03-.04-.06-.06-.08.37-.54.7-1.09,1.04-1.62h0s.02-.04.03-.05c1.98-3.35,3.78-6.8,5.95-9.95.14-.22.29-.43.44-.65.1-.14.2-.29.3-.43.1-.15.21-.29.31-.43.42-.57.85-1.13,1.3-1.67.08-.1.17-.2.25-.3.04-.05.08-.1.12-.15.14-.16.28-.33.42-.49.14-.16.28-.32.42-.48.07-.07.13-.14.2-.21.05-.05.1-.11.15-.16.22-.24.44-.47.67-.71.04-.04.06-.06.08-.09.17-.18.35-.36.53-.53.02-.02.05-.05.07-.07.16-.16.32-.31.48-.47.02-.02.05-.05.07-.07.18-.17.36-.34.55-.51.19-.18.39-.35.59-.53.34-.3.69-.6,1.04-.88.11-.09.21-.17.32-.26.36-.29.72-.57,1.08-.85.32-.24.64-.48.97-.72.08-.06.15-.11.23-.17,3.06-2.18,6.39-4.02,9.87-5.54.14-.06.28-.12.42-.18.87-.38,1.75-.73,2.64-1.06.19-.08.39-.15.59-.22.2-.08.41-.15.61-.22.25-.09.51-.18.76-.27.53-.18,1.05-.36,1.58-.52.02,0,.03-.02.05-.02,1.41-.45,2.84-.85,4.27-1.22-9.61.45-16.94,3.13-22.6,6.89-.05.03-.09.06-.14.09-.61.37-1.21.76-1.81,1.16,1.93-1.59,3.92-3.03,5.97-4.34,8.42-5.37,17.41-8.1,26.72-8.1ZM67.37,424.89c.56.56,1.1,1.13,1.63,1.72h-.06c-9.31-.02-18.29-2.76-26.71-8.14-2.98-1.91-5.84-4.11-8.56-6.6-1.83-1.67-3.6-3.47-5.3-5.4,2.57-.16,5.09-.18,7.57-.07,2.48,2.43,5.07,4.57,7.74,6.41,5.81,4.01,12.04,6.6,18.51,7.68,1.84,1.32,3.57,2.79,5.18,4.4ZM22.23,390.83c-.15.25-.31.51-.46.76-.63,1.01-1.26,2.11-1.92,3.17l-.06-.1.81-1.37c.13-.23.3-.48.48-.75.38-.58.76-1.15,1.15-1.71ZM69,362.86c-.53.59-1.07,1.17-1.64,1.73-1.61,1.61-3.34,3.07-5.18,4.38-6.47,1.07-12.7,3.66-18.52,7.66-3.36,2.31-5.99,4.77-7.74,6.41-4.26,4-7.4,7.77-9.55,10.59-.51.69-1.03,1.39-1.54,2.08-.79,1.08-1.58,2.15-2.36,3.22-.02-.03-.04-.06-.06-.08.37-.54.7-1.09,1.04-1.62h0s.02-.04.03-.05c1.98-3.35,3.78-6.8,5.95-9.95.14-.22.29-.43.44-.65.1-.14.2-.29.3-.43.1-.15.21-.29.31-.43.42-.57.85-1.13,1.3-1.67.08-.1.17-.2.25-.3.04-.05.08-.1.12-.15.14-.16.28-.33.42-.49.14-.16.28-.32.42-.48.07-.07.13-.14.2-.21.05-.05.1-.11.15-.16.22-.24.44-.47.67-.71.04-.04.06-.06.08-.09.17-.18.35-.36.53-.53.02-.02.05-.05.07-.07.16-.16.32-.31.48-.47.02-.02.05-.05.07-.07.18-.17.36-.34.55-.51.19-.18.39-.35.59-.53.34-.3.69-.6,1.04-.88.11-.09.21-.17.32-.26.36-.29.72-.57,1.08-.85.32-.24.64-.48.97-.72.08-.06.15-.11.23-.17,3.06-2.18,6.39-4.02,9.87-5.54.14-.06.28-.12.42-.18.87-.38,1.75-.73,2.64-1.06.19-.08.39-.15.59-.22.2-.08.41-.15.61-.22.25-.09.51-.18.76-.27.53-.18,1.05-.36,1.58-.52.02,0,.03-.02.05-.02,1.41-.45,2.84-.85,4.27-1.22-9.61.45-16.94,3.13-22.6,6.89-.05.03-.09.06-.14.09-.61.37-1.21.76-1.81,1.16,1.93-1.59,3.92-3.03,5.97-4.34,8.42-5.37,17.41-8.1,26.72-8.1h.04ZM69,426.61h-.06c-9.31-.02-18.29-2.76-26.71-8.14-2.98-1.91-5.84-4.11-8.56-6.6-1.83-1.67-3.6-3.47-5.3-5.4,2.57-.16,5.09-.18,7.57-.07,2.48,2.43,5.07,4.57,7.74,6.41,5.81,4.01,12.04,6.6,18.51,7.68,1.84,1.32,3.57,2.79,5.18,4.4.56.56,1.1,1.13,1.63,1.72Z"/>
          <path class="cls-7" d="M-1.12,386c1.48,0,2.68,1.2,2.68,2.68s-1.2,2.68-2.68,2.68-2.68-1.2-2.68-2.68,1.2-2.68,2.68-2.68Z"/>
          <path class="cls-7" d="M60.82,367.16c-1.43.37-2.86.77-4.27,1.22-.02,0-.03,0-.05.02-6.34,2.02-12.45,4.91-17.68,8.9-1.67,1.27-3.25,2.66-4.73,4.16-.02.03-.05.06-.08.09-.49.5-.97,1.02-1.44,1.55-1.13,1.29-2.18,2.66-3.15,4.12-2.18,3.15-3.98,6.6-5.95,9.95,0,.02-.02.03-.03.05h0c-.33.54-.67,1.09-1.04,1.63-.51.76-1.07,1.51-1.74,2.18,0,0,0,0,0,0-.53.52-1.12.99-1.8,1.37-1.96,1.13-4.16.7-5.86-.52-.19-.13-.36-.28-.53-.44-.09-.08-.17-.16-.25-.24t0,0c-.44-.43-.85-.9-1.17-1.42-3.1-4.37-4.5-13.74-9.04-16.82,0,0,0,0-.02-.02-.47-.32-.97-.56-1.52-.74-.51-.19-1-.18-1.48-.07-.65.14-1.31.48-2.02.73-2.52.96-5.16,1.67-7.81,2.19-2.96.65-6.06.92-9.08,1.19-.92.08-1.82.17-2.7.26-.05,0-.1,0-.14.02,1.93.05,3.84.25,5.66.67t.02,0c3.87,1.29,6.23,3.32,7.45,4.55,3.22,3.27,4.4,7.06,5.26,9.85.71,2.3,1.1,4.51,1.44,6.47.52,2.98.5,3.99,1.06,6.62.06.29.12.57.18.84.49,2.26.79,3.52,1.41,4.81.13.27.26.53.41.79,1.69,3.02,4.31,4.86,7.8,7.32,1.44,1.02,2.75,1.79,3.77,2.34.08.04.15.08.22.12.8.43,1.39.71,1.68.85,1.17.55,2.38,1.03,3.8,1.52.46.16.95.32,1.47.48.12.04.19.06.26.08.03,0,.06.02.09.03.05.01.11.03.18.06.03,0,.07.02.11.03,1.12.36,2.03.69,2.65.93.04.02.08.03.12.05.57.82,1.13,1.63,1.69,2.45.25.38.51.77.77,1.18,1.11,1.76,2.25,3.88,3.26,6.36.17.42.33.84.48,1.25,0,.02.02.04.03.07,1.46,3.95,2.09,7.52,2.37,10.26-.87-3.36-3.5-11.56-11.28-17.53-.54-.42-1.08-.8-1.62-1.16h0c-.2-.13-.39-.26-.58-.38-1.92-1.22-3.78-2.08-5.41-2.7-.18-.07-.37-.14-.54-.2h0c-1.7-.68-3.6-1.56-5.57-2.69-3.04-1.74-6.06-3.59-8.32-6.25-.48-.57-.93-1.17-1.33-1.82-.3-.47-.57-.96-.82-1.48-.59-1.26-.96-2.58-1.23-3.92-.12-.6-.22-1.2-.31-1.8-.07-.43-.13-.85-.19-1.27-.22-1.85-.48-3.66-.79-5.45-.06-.58-.15-1.46-.31-2.52-.44-2.9-1.1-5.34-1.45-6.37-1.03-3.12-4.21-8.61-10.06-11.26-1.79-.81-3.57-1.24-5.19-1.46-1.73-.24-3.29-.25-4.51-.26-.98,0-1.88.04-2.68.1-.79.07-1.49.16-2.07.25-.51.06-1.02.11-1.55.15-.56.05-1.11.09-1.64.13.74-.35,1.71-.78,2.86-1.24.43-.17.88-.34,1.36-.51.93-.33,1.97-.67,3.22-1.03.9-.26,1.72-.49,2.58-.7,1.08-.27,2.21-.53,3.6-.79,5.13-.98,10.13-1.84,15.01-3.57.39-.13.77-.27,1.14-.42.79-.29,1.56-.62,2.34-.96,1.72-.87,3.9-1.69,5.89-1.07,1.22.26,2.39.83,3.38,1.53.86.65,1.61,1.38,2.27,2.16,3.42,4.03,5.75,11.92,6.88,13.81.05.09.16.26.34.46.9.98,2.23,1,2.29,1.01,1.11,0,1.87-.59,2.07-.76,0,0,0,0,0,0,.41-.55.8-1.14,1.18-1.75.66-1.06,1.29-2.16,1.92-3.17.15-.25.31-.51.46-.76,1.65-2.7,3.47-5.4,5.57-7.9,1.21-1.44,2.51-2.8,3.91-4.06.49-.45,1-.88,1.51-1.3.99-.81,2.01-1.57,3.06-2.27.6-.4,1.2-.79,1.81-1.16.05-.03.09-.06.14-.09,5.66-3.76,12.99-6.43,22.6-6.89Z"/>
        </g>
        <g>
          <g>
            <path class="cls-7" d="M112.52,233.3c-.91.94-3.83,3.99-6.41,7.74-4,5.81-6.6,12.04-7.68,18.51-1.32,1.84-2.79,3.57-4.4,5.19-.56.56-1.13,1.1-1.72,1.62v-.06c.02-9.31,2.75-18.29,8.14-26.71,1.91-2.98,4.11-5.84,6.6-8.56,1.67-1.83,3.47-3.6,5.4-5.3.16,2.57.18,5.1.07,7.57ZM156.06,266.33v.04c-.59-.53-1.17-1.07-1.73-1.64-1.61-1.61-3.06-3.34-4.38-5.17-1.07-6.47-3.66-12.71-7.66-18.52-.22-.33-.45-.65-.69-.98-.29-.4-.59-.8-.89-1.2.52.14.95.24,1.27.32.28.06.47.11.59.13,1.87.43,3.99,1.03,6.37,1.88,1.48,2.49,2.73,5.03,3.75,7.6,0,.02.02.04.03.07,0,0,0,.02,0,.02,2.22,5.64,3.34,11.48,3.34,17.45ZM146.63,237.62c-.05-.02-.11-.04-.16-.06-.04-.02-.08-.03-.12-.05-.08-.03-.16-.06-.25-.09-.85-.33-1.65-.61-2.41-.84-.04-.01-.07-.02-.11-.03-.06-.02-.12-.04-.18-.06-.03,0-.06-.02-.09-.03-.06-.02-.14-.04-.26-.08-.52-.16-1-.32-1.47-.48-.18-.06-.35-.12-.52-.18-.17-.06-.34-.12-.5-.18-.12-.04-.23-.08-.34-.13-.11-.04-.21-.08-.32-.12-.18-.07-.37-.14-.55-.22-.09-.04-.18-.07-.27-.11-.09-.04-.18-.07-.27-.11-.09-.04-.17-.08-.26-.11-.26-.11-.52-.23-.77-.35-.29-.14-.88-.41-1.68-.85-.08-.08-.15-.16-.23-.24-.11-2.48-.09-5,.07-7.57,1.93,1.7,3.73,3.47,5.4,5.3,1.94,2.12,3.7,4.32,5.28,6.59ZM156.06,266.33v.04c-.59-.53-1.17-1.07-1.73-1.64-1.61-1.61-3.06-3.34-4.38-5.17-1.07-6.47-3.66-12.71-7.66-18.52-.04-.2-.07-.4-.11-.6h0c-.07-.42-.14-.84-.2-1.26.28.06.47.11.59.13,1.87.43,3.99,1.03,6.37,1.88,1.48,2.49,2.73,5.03,3.75,7.6,0,.02.02.04.03.07,0,0,0,.02,0,.02,2.22,5.64,3.34,11.48,3.34,17.45ZM156.06,266.33v.04c-.59-.53-1.17-1.07-1.73-1.64-1.61-1.61-3.06-3.34-4.38-5.17-1.07-6.47-3.66-12.71-7.66-18.52-.04-.2-.07-.4-.11-.6h0c-.07-.42-.14-.84-.2-1.26.28.06.47.11.59.13,1.87.43,3.99,1.03,6.37,1.88,1.48,2.49,2.73,5.03,3.75,7.6,0,.02.02.04.03.07,0,0,0,.02,0,.02,2.22,5.64,3.34,11.48,3.34,17.45ZM150.43,268.69c1.61,1.61,3.32,3.09,5.13,4.44-1.01,6.91-3.57,13.61-7.65,19.98-5.14,8.03-12.43,15.15-21.67,21.18-.25.18-.48.32-.67.43l-1.38.83-1.41-.79c-.27-.15-.51-.31-.7-.44-9.25-6.04-16.55-13.18-21.68-21.23-4.06-6.36-6.61-13.05-7.61-19.96,1.81-1.35,3.52-2.83,5.13-4.43.86,15.27,10.08,29.48,26.21,40.32,16.18-10.84,25.43-25.05,26.29-40.32ZM156.06,266.33v.04c-.59-.53-1.17-1.07-1.73-1.64-1.61-1.61-3.06-3.34-4.38-5.17-1.07-6.47-3.66-12.71-7.66-18.52-.04-.2-.07-.4-.11-.6h0c-.07-.42-.14-.84-.2-1.26.28.06.47.11.59.13,1.87.43,3.99,1.03,6.37,1.88,1.48,2.49,2.73,5.03,3.75,7.6,0,.02.02.04.03.07,0,0,0,.02,0,.02,2.22,5.64,3.34,11.48,3.34,17.45ZM156.06,266.33v.04c-.59-.53-1.17-1.07-1.73-1.64-1.61-1.61-3.06-3.34-4.38-5.17-1.07-6.47-3.66-12.71-7.66-18.52-.04-.2-.07-.4-.11-.6h0c-.07-.42-.14-.84-.2-1.26.28.06.47.11.59.13,1.87.43,3.99,1.03,6.37,1.88,1.48,2.49,2.73,5.03,3.75,7.6,0,.02.02.04.03.07,0,0,0,.02,0,.02,2.22,5.64,3.34,11.48,3.34,17.45Z"/>
            <path class="cls-7" d="M119.64,226.98c-2,1.53-4.49,3.62-7.12,6.33.11-2.47.09-5-.07-7.57,1.35-1.19,2.68-2.26,2.87-2.42.77-.62,1.45-1.14,2.01-1.56.28.83.53,1.52.74,2.04.33.84.66,1.45.86,1.85.27.53.52.98.71,1.33Z"/>
            <path class="cls-7" d="M135.87,233.29c-3.07-3.17-6.25-6.13-9.52-8.9-.57-.72-1.33-1.85-1.88-3.37-.5-1.38-.65-2.6-.69-3.47.16-.13.32-.26.49-.39l1.37.8c.23.13.48.3.75.48,3.47,2.27,6.66,4.7,9.57,7.27-.16,2.57-.18,5.1-.07,7.57Z"/>
          </g>
          <path class="cls-7" d="M88.26,209.06c-2.48,2.43-5.06,4.57-7.74,6.41,0,0,0,0,0,0-6.94,1.28-13.19,3.85-18.52,7.66h0c-2.23.37-4.49.55-6.78.55-.79,0-1.58-.02-2.37-.07.01-.01.03-.03.04-.04h0c6.59-6.57,14.88-10.99,24.64-13.13,3.46-.76,7.03-1.22,10.72-1.38ZM112.52,233.3c-.16,3.7-.63,7.29-1.4,10.75-2.16,9.75-6.59,18.04-13.17,24.62l-.02.02c-.05-.79-.07-1.59-.07-2.38,0-2.27.19-4.53.56-6.75,3.82-5.33,6.4-11.57,7.68-18.51.59-3.2.91-6.54.94-10.01,1.67-1.83,3.47-3.6,5.4-5.3.16,2.57.18,5.1.07,7.57ZM92.8,273.13c-5.6,4.17-12.15,7.1-19.53,8.72-4.4.97-9,1.45-13.77,1.45-5.32,0-10.84-.6-16.53-1.8-.3-.05-.57-.11-.78-.16l-1.57-.39-.43-1.56c-.08-.3-.14-.57-.18-.8-2.27-10.82-2.38-21.02-.32-30.35,1.63-7.37,4.56-13.9,8.73-19.49h0c2.23.33,4.49.49,6.76.49-10.19,11.41-13.71,27.97-9.98,47.04,19.11,3.77,35.7.27,47.1-9.92,0,2.28.16,4.53.49,6.76Z"/>
          <g>
            <path class="cls-7" d="M90.53,214.53c-2.73,2.5-5.6,4.7-8.59,6.61-8.42,5.37-17.41,8.1-26.72,8.1h-.04c.53-.59,1.07-1.17,1.64-1.73,1.61-1.61,3.34-3.07,5.17-4.38h0c6.47-1.07,12.71-3.66,18.52-7.66,0,0,0,0,0,0,3.19-.59,6.54-.9,10.01-.94ZM90.53,214.53c-2.73,2.5-5.6,4.7-8.59,6.61-8.42,5.37-17.41,8.1-26.72,8.1h-.04c.53-.59,1.07-1.17,1.64-1.73,1.61-1.61,3.34-3.07,5.17-4.38h0c6.47-1.07,12.71-3.66,18.52-7.66,0,0,0,0,0,0,3.19-.59,6.54-.9,10.01-.94ZM12.53,197.32c10.84,16.18,25.05,25.43,40.32,26.29-1.61,1.61-3.09,3.32-4.43,5.13h0c-6.91-1.01-13.61-3.57-19.97-7.65-8.03-5.14-15.15-12.43-21.18-21.67-.18-.25-.32-.48-.43-.67l-.83-1.39.79-1.41c.15-.27.3-.49.43-.69,6.04-9.26,13.18-16.55,21.23-21.68,6.37-4.06,13.05-6.61,19.96-7.61,1.35,1.81,2.83,3.52,4.43,5.13-15.27.86-29.48,10.08-40.32,26.21ZM90.51,180.23c-3.47-.04-6.81-.35-10.01-.94-5.81-4-12.04-6.6-18.51-7.68-1.84-1.32-3.57-2.79-5.18-4.4-.56-.56-1.1-1.13-1.63-1.72h.06c9.31.02,18.29,2.76,26.71,8.14,2.98,1.9,5.84,4.11,8.56,6.6Z"/>
            <path class="cls-7" d="M95.83,209.13c-1.7,1.93-3.47,3.73-5.3,5.4-3.47.04-6.81.35-10.01.94,2.67-1.84,5.26-3.98,7.74-6.41,2.48-.11,5-.09,7.57.07Z"/>
          </g>
          <path class="cls-7" d="M92.8,121.6c-.33,2.23-.49,4.49-.49,6.76-11.41-10.19-27.97-13.71-47.04-9.98-3.77,19.1-.27,35.69,9.92,47.1-2.27,0-4.53.16-6.76.49-4.18-5.6-7.1-12.15-8.72-19.53-2.04-9.31-1.92-19.5.35-30.3.05-.3.12-.57.17-.78l.39-1.57,1.56-.44c.3-.08.58-.14.8-.18,10.81-2.27,21.02-2.38,30.34-.32,7.37,1.63,13.9,4.56,19.49,8.73ZM80.51,179.29c2.68,1.84,5.26,3.98,7.74,6.41-3.7-.16-7.29-.63-10.75-1.4-9.75-2.15-18.04-6.59-24.62-13.17,0,0-.02-.02-.03-.03.78-.05,1.57-.07,2.36-.07h.03c2.27,0,4.53.19,6.75.56,5.33,3.82,11.57,6.4,18.51,7.68ZM112.42,169.01c-1.93-1.7-3.73-3.47-5.4-5.3-.04-3.47-.35-6.81-.94-10.01-1.28-6.94-3.85-13.19-7.66-18.52-.37-2.23-.55-4.49-.55-6.77,0-.79.02-1.58.07-2.36.01.01.03.03.04.04h0c6.57,6.6,10.99,14.89,13.13,24.64.76,3.45,1.22,7.03,1.38,10.72.11,2.48.09,5-.07,7.57ZM88.25,185.7c-3.7-.16-7.29-.63-10.75-1.4-9.75-2.15-18.04-6.59-24.62-13.17,0,0-.02-.02-.03-.03.78-.05,1.57-.07,2.36-.07h.03c2.27,0,4.53.19,6.75.56,5.33,3.82,11.57,6.4,18.51,7.68,2.68,1.84,5.26,3.98,7.74,6.41Z"/>
          <path class="cls-7" d="M95.82,185.63c-1.5.09-2.99.14-4.47.14-1.04,0-2.08-.02-3.1-.07-2.48-2.43-5.07-4.57-7.74-6.41,3.19.59,6.54.91,10.01.94,1.83,1.67,3.6,3.47,5.3,5.4Z"/>
          <path class="cls-7" d="M156.06,128.37v.07c-.02,9.31-2.75,18.29-8.14,26.71-1.91,2.98-4.11,5.84-6.6,8.56-1.67,1.83-3.47,3.6-5.4,5.3-2.93,2.59-6.15,5.04-9.66,7.32l-.14.09c-.17.11-.38.25-.63.39l-1.39.77-1.37-.81c-.23-.13-.48-.3-.74-.48-3.47-2.27-6.67-4.7-9.57-7.27-1.93-1.7-3.73-3.47-5.4-5.3-2.5-2.73-4.71-5.6-6.62-8.59-5.37-8.42-8.1-17.41-8.1-26.72v-.04c.59.53,1.17,1.07,1.73,1.64,1.61,1.61,3.06,3.34,4.38,5.17,1.07,6.47,3.66,12.71,7.66,18.52,1.84,2.67,3.98,5.26,6.41,7.74,3.35,3.42,7.25,6.64,11.67,9.61,4.42-2.97,8.33-6.19,11.69-9.62,2.43-2.48,4.57-5.06,6.41-7.74h0c4-5.81,6.6-12.04,7.68-18.51h0c1.32-1.84,2.79-3.57,4.4-5.19.56-.56,1.13-1.1,1.72-1.63ZM135.92,169c-2.93,2.59-6.15,5.04-9.66,7.32l-.14.09c-.17.11-.38.25-.63.39l-1.39.77-1.37-.81c-.23-.13-.48-.3-.74-.48-3.47-2.27-6.67-4.7-9.57-7.27-1.93-1.7-3.73-3.47-5.4-5.3-2.5-2.73-4.71-5.6-6.62-8.59-5.37-8.42-8.1-17.41-8.1-26.72v-.04c.59.53,1.17,1.07,1.73,1.64,1.61,1.61,3.06,3.34,4.38,5.17,1.07,6.47,3.66,12.71,7.66,18.52,1.84,2.67,3.98,5.26,6.41,7.74,3.35,3.42,7.25,6.64,11.67,9.61,4.42-2.97,8.33-6.19,11.69-9.62-.11,2.48-.09,5,.07,7.57ZM155.57,121.6c-1.81,1.35-3.52,2.83-5.13,4.43-.86-15.27-10.08-29.48-26.21-40.32-16.18,10.84-25.43,25.05-26.29,40.32-1.61-1.61-3.32-3.09-5.13-4.44,1.01-6.91,3.57-13.61,7.65-19.98,5.14-8.03,12.43-15.15,21.67-21.18.25-.18.48-.32.67-.43l1.38-.83,1.41.79c.27.15.51.31.7.44,9.25,6.04,16.55,13.18,21.68,21.23,4.06,6.37,6.61,13.05,7.61,19.96ZM135.92,169c-2.93,2.59-6.15,5.04-9.66,7.32l-.14.09c-.17.11-.38.25-.63.39l-1.39.77-1.37-.81c-.23-.13-.48-.3-.74-.48-3.47-2.27-6.67-4.7-9.57-7.27-1.93-1.7-3.73-3.47-5.4-5.3-2.5-2.73-4.71-5.6-6.62-8.59-5.37-8.42-8.1-17.41-8.1-26.72v-.04c.59.53,1.17,1.07,1.73,1.64,1.61,1.61,3.06,3.34,4.38,5.17,1.07,6.47,3.66,12.71,7.66,18.52,1.84,2.67,3.98,5.26,6.41,7.74,3.35,3.42,7.25,6.64,11.67,9.61,4.42-2.97,8.33-6.19,11.69-9.62-.11,2.48-.09,5,.07,7.57Z"/>
          <path class="cls-7" d="M195.51,171.11s-.03.03-.04.04h0c-6.59,6.57-14.88,10.99-24.64,13.14-3.45.76-7.03,1.22-10.72,1.38-1.02.05-2.05.07-3.08.07h-.26c-1.39,0-2.81-.05-4.23-.14-.18-.01-.37-.02-.56-.04,1.21-1.44,2.51-2.8,3.91-4.06.49-.45,1-.88,1.51-1.3.14,0,.29,0,.43,0,1.76-.02,3.48-.11,5.17-.27,1.65-.16,3.26-.38,4.84-.67,6.94-1.28,13.18-3.85,18.52-7.66,2.23-.37,4.5-.55,6.78-.55.79,0,1.58.02,2.36.07ZM150.43,126.04c.05.78.07,1.57.07,2.35v.03c0,2.27-.19,4.53-.56,6.75h0c-3.82,5.33-6.4,11.57-7.68,18.51h0c-.59,3.2-.9,6.54-.94,10.01-1.67,1.83-3.47,3.6-5.4,5.3-.16-2.57-.18-5.09-.07-7.57.16-3.7.63-7.29,1.4-10.75,2.16-9.75,6.59-18.04,13.17-24.62l.02-.02ZM208.68,146.49c-1.63,7.37-4.56,13.9-8.73,19.49-2.23-.33-4.49-.49-6.76-.49,10.19-11.41,13.71-27.97,9.98-47.05-19.11-3.77-35.7-.27-47.1,9.92,0-2.27-.16-4.53-.49-6.76,5.6-4.18,12.15-7.1,19.53-8.72,9.31-2.04,19.5-1.93,30.3.35.3.05.57.11.78.16l1.57.39.43,1.56c.08.3.14.56.18.8,2.27,10.82,2.38,21.02.32,30.35ZM150.43,126.04c.05.78.07,1.57.07,2.35v.03c0,2.27-.19,4.53-.56,6.75h0c-3.82,5.33-6.4,11.57-7.68,18.51h0c-.59,3.2-.9,6.54-.94,10.01-1.67,1.83-3.47,3.6-5.4,5.3-.16-2.57-.18-5.09-.07-7.57.16-3.7.63-7.29,1.4-10.75,2.16-9.75,6.59-18.04,13.17-24.62l.02-.02Z"/>
          <g>
            <path class="cls-7" d="M193.18,229.24h-.06c-9.31-.02-18.29-2.76-26.71-8.14-2.98-1.91-5.84-4.11-8.56-6.6-1.83-1.67-3.6-3.47-5.3-5.4,2.57-.16,5.09-.18,7.57-.07,2.48,2.43,5.07,4.57,7.74,6.41,5.81,4.01,12.04,6.6,18.51,7.68,1.84,1.32,3.57,2.79,5.18,4.4.56.56,1.1,1.13,1.63,1.72ZM193.18,165.49c-.53.59-1.07,1.17-1.64,1.73-1.61,1.61-3.34,3.07-5.18,4.38-6.47,1.07-12.7,3.66-18.52,7.66-3.36,2.31-5.99,4.77-7.74,6.41-4.26,4-7.4,7.77-9.55,10.59-.51.69-1.03,1.39-1.54,2.08-.79,1.08-1.58,2.15-2.36,3.22-.02-.03-.04-.06-.06-.08.37-.54.7-1.09,1.04-1.62h0s.02-.04.03-.05c1.98-3.35,3.78-6.8,5.95-9.95.14-.22.29-.43.44-.65.1-.14.2-.29.3-.43.1-.15.21-.29.31-.43.42-.57.85-1.13,1.3-1.67.08-.1.17-.2.25-.3.04-.05.08-.1.12-.15.14-.16.28-.33.42-.49.14-.16.28-.32.42-.48.07-.07.13-.14.2-.21.05-.05.1-.11.15-.16.22-.24.44-.47.67-.71.04-.04.06-.06.08-.09.17-.18.35-.36.53-.53.02-.02.05-.05.07-.07.16-.16.32-.31.48-.47.02-.02.05-.05.07-.07.18-.17.36-.34.55-.51.19-.18.39-.35.59-.53.34-.3.69-.6,1.04-.88.11-.09.21-.17.32-.26.36-.29.72-.57,1.08-.85.32-.24.64-.48.97-.72.08-.06.15-.11.23-.17,3.06-2.18,6.39-4.02,9.87-5.54.14-.06.28-.12.42-.18.87-.38,1.75-.73,2.64-1.06.19-.08.39-.15.59-.22.2-.08.41-.15.61-.22.25-.09.51-.18.76-.27.53-.18,1.05-.36,1.58-.52.02,0,.03-.02.05-.02,1.41-.45,2.84-.85,4.27-1.22-9.61.45-16.94,3.13-22.6,6.89-.05.03-.09.06-.14.09-.61.37-1.21.76-1.81,1.16,1.93-1.59,3.92-3.03,5.97-4.34,8.42-5.37,17.41-8.1,26.72-8.1h.04ZM242.37,197.35l-.79,1.41c-.15.27-.3.5-.43.69-6.04,9.25-13.18,16.55-21.23,21.68-6.36,4.06-13.05,6.61-19.96,7.61-1.35-1.81-2.83-3.52-4.43-5.13,15.27-.86,29.48-10.08,40.32-26.21-10.84-16.18-25.05-25.43-40.32-26.29,1.61-1.61,3.09-3.32,4.44-5.13,6.91,1.01,13.61,3.57,19.98,7.65,8.03,5.14,15.15,12.43,21.18,21.67.18.25.32.48.43.67l.83,1.38ZM193.15,165.49h.04c-.53.59-1.07,1.17-1.64,1.73-1.61,1.61-3.34,3.07-5.18,4.38-6.47,1.07-12.7,3.66-18.52,7.66-3.36,2.31-5.99,4.77-7.74,6.41-4.26,4-7.4,7.77-9.55,10.59-.51.69-1.03,1.39-1.54,2.08-.79,1.08-1.58,2.15-2.36,3.22-.02-.03-.04-.06-.06-.08.37-.54.7-1.09,1.04-1.62h0s.02-.04.03-.05c1.98-3.35,3.78-6.8,5.95-9.95.14-.22.29-.43.44-.65.1-.14.2-.29.3-.43.1-.15.21-.29.31-.43.42-.57.85-1.13,1.3-1.67.08-.1.17-.2.25-.3.04-.05.08-.1.12-.15.14-.16.28-.33.42-.49.14-.16.28-.32.42-.48.07-.07.13-.14.2-.21.05-.05.1-.11.15-.16.22-.24.44-.47.67-.71.04-.04.06-.06.08-.09.17-.18.35-.36.53-.53.02-.02.05-.05.07-.07.16-.16.32-.31.48-.47.02-.02.05-.05.07-.07.18-.17.36-.34.55-.51.19-.18.39-.35.59-.53.34-.3.69-.6,1.04-.88.11-.09.21-.17.32-.26.36-.29.72-.57,1.08-.85.32-.24.64-.48.97-.72.08-.06.15-.11.23-.17,3.06-2.18,6.39-4.02,9.87-5.54.14-.06.28-.12.42-.18.87-.38,1.75-.73,2.64-1.06.19-.08.39-.15.59-.22.2-.08.41-.15.61-.22.25-.09.51-.18.76-.27.53-.18,1.05-.36,1.58-.52.02,0,.03-.02.05-.02,1.41-.45,2.84-.85,4.27-1.22-9.61.45-16.94,3.13-22.6,6.89-.05.03-.09.06-.14.09-.61.37-1.21.76-1.81,1.16,1.93-1.59,3.92-3.03,5.97-4.34,8.42-5.37,17.41-8.1,26.72-8.1ZM191.56,227.52c.56.56,1.1,1.13,1.63,1.72h-.06c-9.31-.02-18.29-2.76-26.71-8.14-2.98-1.91-5.84-4.11-8.56-6.6-1.83-1.67-3.6-3.47-5.3-5.4,2.57-.16,5.09-.18,7.57-.07,2.48,2.43,5.07,4.57,7.74,6.41,5.81,4.01,12.04,6.6,18.51,7.68,1.84,1.32,3.57,2.79,5.18,4.4ZM146.42,193.46c-.15.25-.31.51-.46.76-.63,1.01-1.26,2.11-1.92,3.17l-.06-.1.81-1.37c.13-.23.3-.48.48-.75.38-.58.76-1.15,1.15-1.71ZM193.18,165.49c-.53.59-1.07,1.17-1.64,1.73-1.61,1.61-3.34,3.07-5.18,4.38-6.47,1.07-12.7,3.66-18.52,7.66-3.36,2.31-5.99,4.77-7.74,6.41-4.26,4-7.4,7.77-9.55,10.59-.51.69-1.03,1.39-1.54,2.08-.79,1.08-1.58,2.15-2.36,3.22-.02-.03-.04-.06-.06-.08.37-.54.7-1.09,1.04-1.62h0s.02-.04.03-.05c1.98-3.35,3.78-6.8,5.95-9.95.14-.22.29-.43.44-.65.1-.14.2-.29.3-.43.1-.15.21-.29.31-.43.42-.57.85-1.13,1.3-1.67.08-.1.17-.2.25-.3.04-.05.08-.1.12-.15.14-.16.28-.33.42-.49.14-.16.28-.32.42-.48.07-.07.13-.14.2-.21.05-.05.1-.11.15-.16.22-.24.44-.47.67-.71.04-.04.06-.06.08-.09.17-.18.35-.36.53-.53.02-.02.05-.05.07-.07.16-.16.32-.31.48-.47.02-.02.05-.05.07-.07.18-.17.36-.34.55-.51.19-.18.39-.35.59-.53.34-.3.69-.6,1.04-.88.11-.09.21-.17.32-.26.36-.29.72-.57,1.08-.85.32-.24.64-.48.97-.72.08-.06.15-.11.23-.17,3.06-2.18,6.39-4.02,9.87-5.54.14-.06.28-.12.42-.18.87-.38,1.75-.73,2.64-1.06.19-.08.39-.15.59-.22.2-.08.41-.15.61-.22.25-.09.51-.18.76-.27.53-.18,1.05-.36,1.58-.52.02,0,.03-.02.05-.02,1.41-.45,2.84-.85,4.27-1.22-9.61.45-16.94,3.13-22.6,6.89-.05.03-.09.06-.14.09-.61.37-1.21.76-1.81,1.16,1.93-1.59,3.92-3.03,5.97-4.34,8.42-5.37,17.41-8.1,26.72-8.1h.04ZM193.18,229.24h-.06c-9.31-.02-18.29-2.76-26.71-8.14-2.98-1.91-5.84-4.11-8.56-6.6-1.83-1.67-3.6-3.47-5.3-5.4,2.57-.16,5.09-.18,7.57-.07,2.48,2.43,5.07,4.57,7.74,6.41,5.81,4.01,12.04,6.6,18.51,7.68,1.84,1.32,3.57,2.79,5.18,4.4.56.56,1.1,1.13,1.63,1.72Z"/>
            <path class="cls-7" d="M160.12,209.03c-2.47-.11-5-.09-7.57.07-1.72-1.94-3.37-4.01-4.96-6.21,1.21-1.49,2.42-2.98,3.64-4.47,2.76,3.99,5.74,7.53,8.89,10.62Z"/>
          </g>
          <path class="cls-7" d="M195.51,223.62c-.78.05-1.57.07-2.36.07h-.02c-2.28,0-4.53-.19-6.76-.57-5.33-3.82-11.57-6.4-18.51-7.68-3.2-.59-6.54-.91-10.01-.94-1.83-1.67-3.6-3.47-5.3-5.4,2.57-.16,5.09-.18,7.57-.07,3.7.16,7.29.63,10.75,1.4,9.75,2.15,18.04,6.59,24.62,13.17,0,0,.02.02.03.03ZM149.95,259.56c.37,2.23.55,4.49.55,6.77,0,.79-.02,1.58-.07,2.37l-.04-.04h0c-6.57-6.6-10.99-14.89-13.13-24.64-.48-2.17-.84-4.39-1.08-6.66-.14-1.3-.24-2.61-.3-3.94,0-.04,0-.08,0-.12-.11-2.48-.09-5,.07-7.57,1.93,1.7,3.73,3.47,5.4,5.3.02,1.65.1,3.28.24,4.87.1,1.11.23,2.2.39,3.28.06.42.13.84.2,1.26h0c.04.2.07.4.11.6,1.28,6.94,3.85,13.19,7.66,18.52ZM208.32,278.58c-.05.3-.12.57-.17.78l-.39,1.57-1.56.44c-.3.08-.57.14-.8.18-5.67,1.19-11.18,1.79-16.48,1.79-4.8,0-9.44-.49-13.87-1.47-7.37-1.63-13.9-4.56-19.49-8.73.33-2.23.49-4.49.49-6.77,11.41,10.19,27.97,13.71,47.04,9.98,3.77-19.11.27-35.69-9.92-47.1,2.27,0,4.53-.16,6.76-.49,4.17,5.6,7.1,12.15,8.72,19.53,2.04,9.31,1.92,19.5-.35,30.3Z"/>
          <path class="cls-7" d="M123.06,188.64c1.48,0,2.68,1.2,2.68,2.68s-1.2,2.68-2.68,2.68-2.68-1.2-2.68-2.68,1.2-2.68,2.68-2.68Z"/>
          <path class="cls-7" d="M185.01,169.79c-1.43.37-2.86.77-4.27,1.22-.02,0-.03,0-.05.02-6.34,2.02-12.45,4.91-17.68,8.9-1.67,1.27-3.25,2.66-4.73,4.16-.02.03-.05.06-.08.09-.49.5-.97,1.02-1.44,1.55-1.13,1.29-2.18,2.66-3.15,4.12-2.18,3.15-3.98,6.6-5.95,9.95,0,.02-.02.03-.03.05h0c-.33.54-.67,1.09-1.04,1.63-.51.76-1.07,1.51-1.74,2.18,0,0,0,0,0,0-.53.52-1.12.99-1.8,1.37-1.96,1.13-4.16.7-5.86-.52-.19-.13-.36-.28-.53-.44-.09-.08-.17-.16-.25-.24t0,0c-.44-.43-.85-.9-1.17-1.42-3.1-4.37-4.5-13.74-9.04-16.82,0,0,0,0-.02-.02-.47-.32-.97-.56-1.52-.74-.51-.19-1-.18-1.48-.07-.65.14-1.31.48-2.02.73-2.52.96-5.16,1.67-7.81,2.19-2.96.65-6.06.92-9.08,1.19-.92.08-1.82.17-2.7.26-.05,0-.1,0-.14.02,1.93.05,3.84.25,5.66.67t.02,0c3.87,1.29,6.23,3.32,7.45,4.55,3.22,3.27,4.4,7.06,5.26,9.85.71,2.3,1.1,4.51,1.44,6.47.52,2.98.5,3.99,1.06,6.62.06.29.12.57.18.84.49,2.26.79,3.52,1.41,4.81.13.27.26.53.41.79,1.69,3.02,4.31,4.86,7.8,7.32,1.44,1.02,2.75,1.79,3.77,2.34.08.04.15.08.22.12.8.43,1.39.71,1.68.85,1.17.55,2.38,1.03,3.8,1.52.46.16.95.32,1.47.48.12.04.19.06.26.08.03,0,.06.02.09.03.05.01.11.03.18.06.03,0,.07.02.11.03,1.12.36,2.03.69,2.65.93.04.02.08.03.12.05.57.82,1.13,1.63,1.69,2.45.25.38.51.77.77,1.18,1.11,1.76,2.25,3.88,3.26,6.36.17.42.33.84.48,1.25,0,.02.02.04.03.07,1.46,3.95,2.09,7.52,2.37,10.26-.87-3.36-3.5-11.56-11.28-17.53-.54-.42-1.08-.8-1.62-1.16h0c-.2-.13-.39-.26-.58-.38-1.92-1.22-3.78-2.08-5.41-2.7-.18-.07-.37-.14-.54-.2h0c-1.7-.68-3.6-1.56-5.57-2.69-3.04-1.74-6.06-3.59-8.32-6.25-.48-.57-.93-1.17-1.33-1.82-.3-.47-.57-.96-.82-1.48-.59-1.26-.96-2.58-1.23-3.92-.12-.6-.22-1.2-.31-1.8-.07-.43-.13-.85-.19-1.27-.22-1.85-.48-3.66-.79-5.45-.06-.58-.15-1.46-.31-2.52-.44-2.9-1.1-5.34-1.45-6.37-1.03-3.12-4.21-8.61-10.06-11.26-1.79-.81-3.57-1.24-5.19-1.46-1.73-.24-3.29-.25-4.51-.26-.98,0-1.88.04-2.68.1-.79.07-1.49.16-2.07.25-.51.06-1.02.11-1.55.15-.56.05-1.11.09-1.64.13.74-.35,1.71-.78,2.86-1.24.43-.17.88-.34,1.36-.51.93-.33,1.97-.67,3.22-1.03.9-.26,1.72-.49,2.58-.7,1.08-.27,2.21-.53,3.6-.79,5.13-.98,10.13-1.84,15.01-3.57.39-.13.77-.27,1.14-.42.79-.29,1.56-.62,2.34-.96,1.72-.87,3.9-1.69,5.89-1.07,1.22.26,2.39.83,3.38,1.53.86.65,1.61,1.38,2.27,2.16,3.42,4.03,5.75,11.92,6.88,13.81.05.09.16.26.34.46.9.98,2.23,1,2.29,1.01,1.11,0,1.87-.59,2.07-.76,0,0,0,0,0,0,.41-.55.8-1.14,1.18-1.75.66-1.06,1.29-2.16,1.92-3.17.15-.25.31-.51.46-.76,1.65-2.7,3.47-5.4,5.57-7.9,1.21-1.44,2.51-2.8,3.91-4.06.49-.45,1-.88,1.51-1.3.99-.81,2.01-1.57,3.06-2.27.6-.4,1.2-.79,1.81-1.16.05-.03.09-.06.14-.09,5.66-3.76,12.99-6.43,22.6-6.89Z"/>
        </g>
        <g>
          <g>
            <path class="cls-7" d="M236.71,35.94c-.91.94-3.83,3.99-6.41,7.74-4,5.81-6.6,12.04-7.68,18.51-1.32,1.84-2.79,3.57-4.4,5.19-.56.56-1.13,1.1-1.72,1.62v-.06c.02-9.31,2.75-18.29,8.14-26.71,1.91-2.98,4.11-5.84,6.6-8.56,1.67-1.83,3.47-3.6,5.4-5.3.16,2.57.18,5.1.07,7.57ZM280.24,68.96v.04c-.59-.53-1.17-1.07-1.73-1.64-1.61-1.61-3.06-3.34-4.38-5.17-1.07-6.47-3.66-12.71-7.66-18.52-.22-.33-.45-.65-.69-.98-.29-.4-.59-.8-.89-1.2.52.14.95.24,1.27.32.28.06.47.11.59.13,1.87.43,3.99,1.03,6.37,1.88,1.48,2.49,2.73,5.03,3.75,7.6,0,.02.02.04.03.07,0,0,0,.02,0,.02,2.22,5.64,3.34,11.48,3.34,17.45ZM270.81,40.25c-.05-.02-.11-.04-.16-.06-.04-.02-.08-.03-.12-.05-.08-.03-.16-.06-.25-.09-.85-.33-1.65-.61-2.41-.84-.04-.01-.07-.02-.11-.03-.06-.02-.12-.04-.18-.06-.03,0-.06-.02-.09-.03-.06-.02-.14-.04-.26-.08-.52-.16-1-.32-1.47-.48-.18-.06-.35-.12-.52-.18-.17-.06-.34-.12-.5-.18-.12-.04-.23-.08-.34-.13-.11-.04-.21-.08-.32-.12-.18-.07-.37-.14-.55-.22-.09-.04-.18-.07-.27-.11-.09-.04-.18-.07-.27-.11-.09-.04-.17-.08-.26-.11-.26-.11-.52-.23-.77-.35-.29-.14-.88-.41-1.68-.85-.08-.08-.15-.16-.23-.24-.11-2.48-.09-5,.07-7.57,1.93,1.7,3.73,3.47,5.4,5.3,1.94,2.12,3.7,4.32,5.28,6.59ZM280.24,68.96v.04c-.59-.53-1.17-1.07-1.73-1.64-1.61-1.61-3.06-3.34-4.38-5.17-1.07-6.47-3.66-12.71-7.66-18.52-.04-.2-.07-.4-.11-.6h0c-.07-.42-.14-.84-.2-1.26.28.06.47.11.59.13,1.87.43,3.99,1.03,6.37,1.88,1.48,2.49,2.73,5.03,3.75,7.6,0,.02.02.04.03.07,0,0,0,.02,0,.02,2.22,5.64,3.34,11.48,3.34,17.45ZM280.24,68.96v.04c-.59-.53-1.17-1.07-1.73-1.64-1.61-1.61-3.06-3.34-4.38-5.17-1.07-6.47-3.66-12.71-7.66-18.52-.04-.2-.07-.4-.11-.6h0c-.07-.42-.14-.84-.2-1.26.28.06.47.11.59.13,1.87.43,3.99,1.03,6.37,1.88,1.48,2.49,2.73,5.03,3.75,7.6,0,.02.02.04.03.07,0,0,0,.02,0,.02,2.22,5.64,3.34,11.48,3.34,17.45ZM274.62,71.33c1.61,1.61,3.32,3.09,5.13,4.44-1.01,6.91-3.57,13.61-7.65,19.98-5.14,8.03-12.43,15.15-21.67,21.18-.25.18-.48.32-.67.43l-1.38.83-1.41-.79c-.27-.15-.51-.31-.7-.44-9.25-6.04-16.55-13.18-21.68-21.23-4.06-6.36-6.61-13.05-7.61-19.96,1.81-1.35,3.52-2.83,5.13-4.43.86,15.27,10.08,29.48,26.21,40.32,16.18-10.84,25.43-25.05,26.29-40.32ZM280.24,68.96v.04c-.59-.53-1.17-1.07-1.73-1.64-1.61-1.61-3.06-3.34-4.38-5.17-1.07-6.47-3.66-12.71-7.66-18.52-.04-.2-.07-.4-.11-.6h0c-.07-.42-.14-.84-.2-1.26.28.06.47.11.59.13,1.87.43,3.99,1.03,6.37,1.88,1.48,2.49,2.73,5.03,3.75,7.6,0,.02.02.04.03.07,0,0,0,.02,0,.02,2.22,5.64,3.34,11.48,3.34,17.45ZM280.24,68.96v.04c-.59-.53-1.17-1.07-1.73-1.64-1.61-1.61-3.06-3.34-4.38-5.17-1.07-6.47-3.66-12.71-7.66-18.52-.04-.2-.07-.4-.11-.6h0c-.07-.42-.14-.84-.2-1.26.28.06.47.11.59.13,1.87.43,3.99,1.03,6.37,1.88,1.48,2.49,2.73,5.03,3.75,7.6,0,.02.02.04.03.07,0,0,0,.02,0,.02,2.22,5.64,3.34,11.48,3.34,17.45Z"/>
            <path class="cls-7" d="M243.83,29.61c-2,1.53-4.49,3.62-7.12,6.33.11-2.47.09-5-.07-7.57,1.35-1.19,2.68-2.26,2.87-2.42.77-.62,1.45-1.14,2.01-1.56.28.83.53,1.52.74,2.04.33.84.66,1.45.86,1.85.27.53.52.98.71,1.33Z"/>
            <path class="cls-7" d="M260.06,35.93c-3.07-3.17-6.25-6.13-9.52-8.9-.57-.72-1.33-1.85-1.88-3.37-.5-1.38-.65-2.6-.69-3.47.16-.13.32-.26.49-.39l1.37.8c.23.13.48.3.75.48,3.47,2.27,6.66,4.7,9.57,7.27-.16,2.57-.18,5.1-.07,7.57Z"/>
          </g>
          <path class="cls-7" d="M212.44,11.69c-2.48,2.43-5.06,4.57-7.74,6.41,0,0,0,0,0,0-6.94,1.28-13.19,3.85-18.52,7.66h0c-2.23.37-4.49.55-6.78.55-.79,0-1.58-.02-2.37-.07.01-.01.03-.03.04-.04h0c6.59-6.57,14.88-10.99,24.64-13.13,3.46-.76,7.03-1.22,10.72-1.38ZM236.71,35.94c-.16,3.7-.63,7.29-1.4,10.75-2.16,9.75-6.59,18.04-13.17,24.62l-.02.02c-.05-.79-.07-1.59-.07-2.38,0-2.27.19-4.53.56-6.75,3.82-5.33,6.4-11.57,7.68-18.51.59-3.2.91-6.54.94-10.01,1.67-1.83,3.47-3.6,5.4-5.3.16,2.57.18,5.1.07,7.57ZM216.98,75.76c-5.6,4.17-12.15,7.1-19.53,8.72-4.4.97-9,1.45-13.77,1.45-5.32,0-10.84-.6-16.53-1.8-.3-.05-.57-.11-.78-.16l-1.57-.39-.43-1.56c-.08-.3-.14-.57-.18-.8-2.27-10.82-2.38-21.02-.32-30.35,1.63-7.37,4.56-13.9,8.73-19.49h0c2.23.33,4.49.49,6.76.49-10.19,11.41-13.71,27.97-9.98,47.04,19.11,3.77,35.7.27,47.1-9.92,0,2.28.16,4.53.49,6.76Z"/>
          <g>
            <path class="cls-7" d="M214.71,17.16c-2.73,2.5-5.6,4.7-8.59,6.61-8.42,5.37-17.41,8.1-26.72,8.1h-.04c.53-.59,1.07-1.17,1.64-1.73,1.61-1.61,3.34-3.07,5.17-4.38h0c6.47-1.07,12.71-3.66,18.52-7.66,0,0,0,0,0,0,3.19-.59,6.54-.9,10.01-.94ZM214.71,17.16c-2.73,2.5-5.6,4.7-8.59,6.61-8.42,5.37-17.41,8.1-26.72,8.1h-.04c.53-.59,1.07-1.17,1.64-1.73,1.61-1.61,3.34-3.07,5.17-4.38h0c6.47-1.07,12.71-3.66,18.52-7.66,0,0,0,0,0,0,3.19-.59,6.54-.9,10.01-.94ZM136.72-.04c10.84,16.18,25.05,25.43,40.32,26.29-1.61,1.61-3.09,3.32-4.43,5.13h0c-6.91-1.01-13.61-3.57-19.97-7.65-8.03-5.14-15.15-12.43-21.18-21.67-.18-.25-.32-.48-.43-.67l-.83-1.39.79-1.41c.15-.27.3-.49.43-.69,6.04-9.26,13.18-16.55,21.23-21.68,6.37-4.06,13.05-6.61,19.96-7.61,1.35,1.81,2.83,3.52,4.43,5.13-15.27.86-29.48,10.08-40.32,26.21ZM214.7-17.14c-3.47-.04-6.81-.35-10.01-.94-5.81-4-12.04-6.6-18.51-7.68-1.84-1.32-3.57-2.79-5.18-4.4-.56-.56-1.1-1.13-1.63-1.72h.06c9.31.02,18.29,2.76,26.71,8.14,2.98,1.9,5.84,4.11,8.56,6.6Z"/>
            <path class="cls-7" d="M220.01,11.76c-1.7,1.93-3.47,3.73-5.3,5.4-3.47.04-6.81.35-10.01.94,2.67-1.84,5.26-3.98,7.74-6.41,2.48-.11,5-.09,7.57.07Z"/>
          </g>
          <path class="cls-7" d="M309.19-27.57c-1.43.37-2.86.77-4.27,1.22-.02,0-.03,0-.05.02-6.34,2.02-12.45,4.91-17.68,8.9-1.67,1.27-3.25,2.66-4.73,4.16-.02.03-.05.06-.08.09-.49.5-.97,1.02-1.44,1.55-1.13,1.29-2.18,2.66-3.15,4.12-2.18,3.15-3.98,6.6-5.95,9.95,0,.02-.02.03-.03.05h0c-.33.54-.67,1.09-1.04,1.63-.51.76-1.07,1.51-1.74,2.18,0,0,0,0,0,0-.53.52-1.12.99-1.8,1.37-1.96,1.13-4.16.7-5.86-.52-.19-.13-.36-.28-.53-.44-.09-.08-.17-.16-.25-.24t0,0c-.44-.43-.85-.9-1.17-1.42-3.1-4.37-4.5-13.74-9.04-16.82,0,0,0,0-.02-.02-.47-.32-.97-.56-1.52-.74-.51-.19-1-.18-1.48-.07-.65.14-1.31.48-2.02.73-2.52.96-5.16,1.67-7.81,2.19-2.96.65-6.06.92-9.08,1.19-.92.08-1.82.17-2.7.26-.05,0-.1,0-.14.02,1.93.05,3.84.25,5.66.67t.02,0c3.87,1.29,6.23,3.32,7.45,4.55,3.22,3.27,4.4,7.06,5.26,9.85.71,2.3,1.1,4.51,1.44,6.47.52,2.98.5,3.99,1.06,6.62.06.29.12.57.18.84.49,2.26.79,3.52,1.41,4.81.13.27.26.53.41.79,1.69,3.02,4.31,4.86,7.8,7.32,1.44,1.02,2.75,1.79,3.77,2.34.08.04.15.08.22.12.8.43,1.39.71,1.68.85,1.17.55,2.38,1.03,3.8,1.52.46.16.95.32,1.47.48.12.04.19.06.26.08.03,0,.06.02.09.03.05.01.11.03.18.06.03,0,.07.02.11.03,1.12.36,2.03.69,2.65.93.04.02.08.03.12.05.57.82,1.13,1.63,1.69,2.45.25.38.51.77.77,1.18,1.11,1.76,2.25,3.88,3.26,6.36.17.42.33.84.48,1.25,0,.02.02.04.03.07,1.46,3.95,2.09,7.52,2.37,10.26-.87-3.36-3.5-11.56-11.28-17.53-.54-.42-1.08-.8-1.62-1.16h0c-.2-.13-.39-.26-.58-.38-1.92-1.22-3.78-2.08-5.41-2.7-.18-.07-.37-.14-.54-.2h0c-1.7-.68-3.6-1.56-5.57-2.69-3.04-1.74-6.06-3.59-8.32-6.25-.48-.57-.93-1.17-1.33-1.82-.3-.47-.57-.96-.82-1.48-.59-1.26-.96-2.58-1.23-3.92-.12-.6-.22-1.2-.31-1.8-.07-.43-.13-.85-.19-1.27-.22-1.85-.48-3.66-.79-5.45-.06-.58-.15-1.46-.31-2.52-.44-2.9-1.1-5.34-1.45-6.37-1.03-3.12-4.21-8.61-10.06-11.26-1.79-.81-3.57-1.24-5.19-1.46-1.73-.24-3.29-.25-4.51-.26-.98,0-1.88.04-2.68.1-.79.07-1.49.16-2.07.25-.51.06-1.02.11-1.55.15-.56.05-1.11.09-1.64.13.74-.35,1.71-.78,2.86-1.24.43-.17.88-.34,1.36-.51.93-.33,1.97-.67,3.22-1.03.9-.26,1.72-.49,2.58-.7,1.08-.27,2.21-.53,3.6-.79,5.13-.98,10.13-1.84,15.01-3.57.39-.13.77-.27,1.14-.42.79-.29,1.56-.62,2.34-.96,1.72-.87,3.9-1.69,5.89-1.07,1.22.26,2.39.83,3.38,1.53.86.65,1.61,1.38,2.27,2.16,3.42,4.03,5.75,11.92,6.88,13.81.05.09.16.26.34.46.9.98,2.23,1,2.29,1.01,1.11,0,1.87-.59,2.07-.76,0,0,0,0,0,0,.41-.55.8-1.14,1.18-1.75.66-1.06,1.29-2.16,1.92-3.17.15-.25.31-.51.46-.76,1.65-2.7,3.47-5.4,5.57-7.9,1.21-1.44,2.51-2.8,3.91-4.06.49-.45,1-.88,1.51-1.3.99-.81,2.01-1.57,3.06-2.27.6-.4,1.2-.79,1.81-1.16.05-.03.09-.06.14-.09,5.66-3.76,12.99-6.43,22.6-6.89Z"/>
        </g>
        <g>
          <g>
            <path class="cls-7" d="M-11.66,35.94c-.91.94-3.83,3.99-6.41,7.74-4,5.81-6.6,12.04-7.68,18.51-1.32,1.84-2.79,3.57-4.4,5.19-.56.56-1.13,1.1-1.72,1.62v-.06c.02-9.31,2.75-18.29,8.14-26.71,1.91-2.98,4.11-5.84,6.6-8.56,1.67-1.83,3.47-3.6,5.4-5.3.16,2.57.18,5.1.07,7.57ZM31.87,68.96v.04c-.59-.53-1.17-1.07-1.73-1.64-1.61-1.61-3.06-3.34-4.38-5.17-1.07-6.47-3.66-12.71-7.66-18.52-.22-.33-.45-.65-.69-.98-.29-.4-.59-.8-.89-1.2.52.14.95.24,1.27.32.28.06.47.11.59.13,1.87.43,3.99,1.03,6.37,1.88,1.48,2.49,2.73,5.03,3.75,7.6,0,.02.02.04.03.07,0,0,0,.02,0,.02,2.22,5.64,3.34,11.48,3.34,17.45ZM22.44,40.25c-.05-.02-.11-.04-.16-.06-.04-.02-.08-.03-.12-.05-.08-.03-.16-.06-.25-.09-.85-.33-1.65-.61-2.41-.84-.04-.01-.07-.02-.11-.03-.06-.02-.12-.04-.18-.06-.03,0-.06-.02-.09-.03-.06-.02-.14-.04-.26-.08-.52-.16-1-.32-1.47-.48-.18-.06-.35-.12-.52-.18-.17-.06-.34-.12-.5-.18-.12-.04-.23-.08-.34-.13-.11-.04-.21-.08-.32-.12-.18-.07-.37-.14-.55-.22-.09-.04-.18-.07-.27-.11-.09-.04-.18-.07-.27-.11-.09-.04-.17-.08-.26-.11-.26-.11-.52-.23-.77-.35-.29-.14-.88-.41-1.68-.85-.08-.08-.15-.16-.23-.24-.11-2.48-.09-5,.07-7.57,1.93,1.7,3.73,3.47,5.4,5.3,1.94,2.12,3.7,4.32,5.28,6.59ZM31.87,68.96v.04c-.59-.53-1.17-1.07-1.73-1.64-1.61-1.61-3.06-3.34-4.38-5.17-1.07-6.47-3.66-12.71-7.66-18.52-.04-.2-.07-.4-.11-.6h0c-.07-.42-.14-.84-.2-1.26.28.06.47.11.59.13,1.87.43,3.99,1.03,6.37,1.88,1.48,2.49,2.73,5.03,3.75,7.6,0,.02.02.04.03.07,0,0,0,.02,0,.02,2.22,5.64,3.34,11.48,3.34,17.45ZM31.87,68.96v.04c-.59-.53-1.17-1.07-1.73-1.64-1.61-1.61-3.06-3.34-4.38-5.17-1.07-6.47-3.66-12.71-7.66-18.52-.04-.2-.07-.4-.11-.6h0c-.07-.42-.14-.84-.2-1.26.28.06.47.11.59.13,1.87.43,3.99,1.03,6.37,1.88,1.48,2.49,2.73,5.03,3.75,7.6,0,.02.02.04.03.07,0,0,0,.02,0,.02,2.22,5.64,3.34,11.48,3.34,17.45ZM26.25,71.33c1.61,1.61,3.32,3.09,5.13,4.44-1.01,6.91-3.57,13.61-7.65,19.98-5.14,8.03-12.43,15.15-21.67,21.18-.25.18-.48.32-.67.43l-1.38.83-1.41-.79c-.27-.15-.51-.31-.7-.44-9.25-6.04-16.55-13.18-21.68-21.23-4.06-6.36-6.61-13.05-7.61-19.96,1.81-1.35,3.52-2.83,5.13-4.43.86,15.27,10.08,29.48,26.21,40.32,16.18-10.84,25.43-25.05,26.29-40.32ZM31.87,68.96v.04c-.59-.53-1.17-1.07-1.73-1.64-1.61-1.61-3.06-3.34-4.38-5.17-1.07-6.47-3.66-12.71-7.66-18.52-.04-.2-.07-.4-.11-.6h0c-.07-.42-.14-.84-.2-1.26.28.06.47.11.59.13,1.87.43,3.99,1.03,6.37,1.88,1.48,2.49,2.73,5.03,3.75,7.6,0,.02.02.04.03.07,0,0,0,.02,0,.02,2.22,5.64,3.34,11.48,3.34,17.45ZM31.87,68.96v.04c-.59-.53-1.17-1.07-1.73-1.64-1.61-1.61-3.06-3.34-4.38-5.17-1.07-6.47-3.66-12.71-7.66-18.52-.04-.2-.07-.4-.11-.6h0c-.07-.42-.14-.84-.2-1.26.28.06.47.11.59.13,1.87.43,3.99,1.03,6.37,1.88,1.48,2.49,2.73,5.03,3.75,7.6,0,.02.02.04.03.07,0,0,0,.02,0,.02,2.22,5.64,3.34,11.48,3.34,17.45Z"/>
            <path class="cls-7" d="M11.69,35.93c-3.07-3.17-6.25-6.13-9.52-8.9-.57-.72-1.33-1.85-1.88-3.37-.5-1.38-.65-2.6-.69-3.47.16-.13.32-.26.49-.39l1.37.8c.23.13.48.3.75.48,3.47,2.27,6.66,4.7,9.57,7.27-.16,2.57-.18,5.1-.07,7.57Z"/>
          </g>
          <g>
            <path class="cls-7" d="M69,31.87h-.06c-9.31-.02-18.29-2.76-26.71-8.14-2.98-1.91-5.84-4.11-8.56-6.6-1.83-1.67-3.6-3.47-5.3-5.4,2.57-.16,5.09-.18,7.57-.07,2.48,2.43,5.07,4.57,7.74,6.41,5.81,4.01,12.04,6.6,18.51,7.68,1.84,1.32,3.57,2.79,5.18,4.4.56.56,1.1,1.13,1.63,1.72ZM69-31.87c-.53.59-1.07,1.17-1.64,1.73-1.61,1.61-3.34,3.07-5.18,4.38-6.47,1.07-12.7,3.66-18.52,7.66-3.36,2.31-5.99,4.77-7.74,6.41-4.26,4-7.4,7.77-9.55,10.59-.51.69-1.03,1.39-1.54,2.08-.79,1.08-1.58,2.15-2.36,3.22-.02-.03-.04-.06-.06-.08.37-.54.7-1.09,1.04-1.62h0s.02-.04.03-.05c1.98-3.35,3.78-6.8,5.95-9.95.14-.22.29-.43.44-.65.1-.14.2-.29.3-.43.1-.15.21-.29.31-.43.42-.57.85-1.13,1.3-1.67.08-.1.17-.2.25-.3.04-.05.08-.1.12-.15.14-.16.28-.33.42-.49.14-.16.28-.32.42-.48.07-.07.13-.14.2-.21.05-.05.1-.11.15-.16.22-.24.44-.47.67-.71.04-.04.06-.06.08-.09.17-.18.35-.36.53-.53.02-.02.05-.05.07-.07.16-.16.32-.31.48-.47.02-.02.05-.05.07-.07.18-.17.36-.34.55-.51.19-.18.39-.35.59-.53.34-.3.69-.6,1.04-.88.11-.09.21-.17.32-.26.36-.29.72-.57,1.08-.85.32-.24.64-.48.97-.72.08-.06.15-.11.23-.17,3.06-2.18,6.39-4.02,9.87-5.54.14-.06.28-.12.42-.18.87-.38,1.75-.73,2.64-1.06.19-.08.39-.15.59-.22.2-.08.41-.15.61-.22.25-.09.51-.18.76-.27.53-.18,1.05-.36,1.58-.52.02,0,.03-.02.05-.02,1.41-.45,2.84-.85,4.27-1.22-9.61.45-16.94,3.13-22.6,6.89-.05.03-.09.06-.14.09-.61.37-1.21.76-1.81,1.16,1.93-1.59,3.92-3.03,5.97-4.34,8.42-5.37,17.41-8.1,26.72-8.1h.04ZM118.18-.01l-.79,1.41c-.15.27-.3.5-.43.69-6.04,9.25-13.18,16.55-21.23,21.68-6.36,4.06-13.05,6.61-19.96,7.61-1.35-1.81-2.83-3.52-4.43-5.13,15.27-.86,29.48-10.08,40.32-26.21-10.84-16.18-25.05-25.43-40.32-26.29,1.61-1.61,3.09-3.32,4.44-5.13,6.91,1.01,13.61,3.57,19.98,7.65,8.03,5.14,15.15,12.43,21.18,21.67.18.25.32.48.43.67l.83,1.38ZM68.96-31.87h.04c-.53.59-1.07,1.17-1.64,1.73-1.61,1.61-3.34,3.07-5.18,4.38-6.47,1.07-12.7,3.66-18.52,7.66-3.36,2.31-5.99,4.77-7.74,6.41-4.26,4-7.4,7.77-9.55,10.59-.51.69-1.03,1.39-1.54,2.08-.79,1.08-1.58,2.15-2.36,3.22-.02-.03-.04-.06-.06-.08.37-.54.7-1.09,1.04-1.62h0s.02-.04.03-.05c1.98-3.35,3.78-6.8,5.95-9.95.14-.22.29-.43.44-.65.1-.14.2-.29.3-.43.1-.15.21-.29.31-.43.42-.57.85-1.13,1.3-1.67.08-.1.17-.2.25-.3.04-.05.08-.1.12-.15.14-.16.28-.33.42-.49.14-.16.28-.32.42-.48.07-.07.13-.14.2-.21.05-.05.1-.11.15-.16.22-.24.44-.47.67-.71.04-.04.06-.06.08-.09.17-.18.35-.36.53-.53.02-.02.05-.05.07-.07.16-.16.32-.31.48-.47.02-.02.05-.05.07-.07.18-.17.36-.34.55-.51.19-.18.39-.35.59-.53.34-.3.69-.6,1.04-.88.11-.09.21-.17.32-.26.36-.29.72-.57,1.08-.85.32-.24.64-.48.97-.72.08-.06.15-.11.23-.17,3.06-2.18,6.39-4.02,9.87-5.54.14-.06.28-.12.42-.18.87-.38,1.75-.73,2.64-1.06.19-.08.39-.15.59-.22.2-.08.41-.15.61-.22.25-.09.51-.18.76-.27.53-.18,1.05-.36,1.58-.52.02,0,.03-.02.05-.02,1.41-.45,2.84-.85,4.27-1.22-9.61.45-16.94,3.13-22.6,6.89-.05.03-.09.06-.14.09-.61.37-1.21.76-1.81,1.16,1.93-1.59,3.92-3.03,5.97-4.34,8.42-5.37,17.41-8.1,26.72-8.1ZM67.37,30.15c.56.56,1.1,1.13,1.63,1.72h-.06c-9.31-.02-18.29-2.76-26.71-8.14-2.98-1.91-5.84-4.11-8.56-6.6-1.83-1.67-3.6-3.47-5.3-5.4,2.57-.16,5.09-.18,7.57-.07,2.48,2.43,5.07,4.57,7.74,6.41,5.81,4.01,12.04,6.6,18.51,7.68,1.84,1.32,3.57,2.79,5.18,4.4ZM22.23-3.9c-.15.25-.31.51-.46.76-.63,1.01-1.26,2.11-1.92,3.17l-.06-.1.81-1.37c.13-.23.3-.48.48-.75.38-.58.76-1.15,1.15-1.71ZM69-31.87c-.53.59-1.07,1.17-1.64,1.73-1.61,1.61-3.34,3.07-5.18,4.38-6.47,1.07-12.7,3.66-18.52,7.66-3.36,2.31-5.99,4.77-7.74,6.41-4.26,4-7.4,7.77-9.55,10.59-.51.69-1.03,1.39-1.54,2.08-.79,1.08-1.58,2.15-2.36,3.22-.02-.03-.04-.06-.06-.08.37-.54.7-1.09,1.04-1.62h0s.02-.04.03-.05c1.98-3.35,3.78-6.8,5.95-9.95.14-.22.29-.43.44-.65.1-.14.2-.29.3-.43.1-.15.21-.29.31-.43.42-.57.85-1.13,1.3-1.67.08-.1.17-.2.25-.3.04-.05.08-.1.12-.15.14-.16.28-.33.42-.49.14-.16.28-.32.42-.48.07-.07.13-.14.2-.21.05-.05.1-.11.15-.16.22-.24.44-.47.67-.71.04-.04.06-.06.08-.09.17-.18.35-.36.53-.53.02-.02.05-.05.07-.07.16-.16.32-.31.48-.47.02-.02.05-.05.07-.07.18-.17.36-.34.55-.51.19-.18.39-.35.59-.53.34-.3.69-.6,1.04-.88.11-.09.21-.17.32-.26.36-.29.72-.57,1.08-.85.32-.24.64-.48.97-.72.08-.06.15-.11.23-.17,3.06-2.18,6.39-4.02,9.87-5.54.14-.06.28-.12.42-.18.87-.38,1.75-.73,2.64-1.06.19-.08.39-.15.59-.22.2-.08.41-.15.61-.22.25-.09.51-.18.76-.27.53-.18,1.05-.36,1.58-.52.02,0,.03-.02.05-.02,1.41-.45,2.84-.85,4.27-1.22-9.61.45-16.94,3.13-22.6,6.89-.05.03-.09.06-.14.09-.61.37-1.21.76-1.81,1.16,1.93-1.59,3.92-3.03,5.97-4.34,8.42-5.37,17.41-8.1,26.72-8.1h.04ZM69,31.87h-.06c-9.31-.02-18.29-2.76-26.71-8.14-2.98-1.91-5.84-4.11-8.56-6.6-1.83-1.67-3.6-3.47-5.3-5.4,2.57-.16,5.09-.18,7.57-.07,2.48,2.43,5.07,4.57,7.74,6.41,5.81,4.01,12.04,6.6,18.51,7.68,1.84,1.32,3.57,2.79,5.18,4.4.56.56,1.1,1.13,1.63,1.72Z"/>
            <path class="cls-7" d="M35.94,11.66c-2.47-.11-5-.09-7.57.07-1.72-1.94-3.37-4.01-4.96-6.21,1.21-1.49,2.42-2.98,3.64-4.47,2.76,3.99,5.74,7.53,8.89,10.62Z"/>
          </g>
          <path class="cls-7" d="M71.33,26.25c-.78.05-1.57.07-2.36.07h-.02c-2.28,0-4.53-.19-6.76-.57-5.33-3.82-11.57-6.4-18.51-7.68-3.2-.59-6.54-.91-10.01-.94-1.83-1.67-3.6-3.47-5.3-5.4,2.57-.16,5.09-.18,7.57-.07,3.7.16,7.29.63,10.75,1.4,9.75,2.15,18.04,6.59,24.62,13.17,0,0,.02.02.03.03ZM25.76,62.19c.37,2.23.55,4.49.55,6.77,0,.79-.02,1.58-.07,2.37l-.04-.04h0c-6.57-6.6-10.99-14.89-13.13-24.64-.48-2.17-.84-4.39-1.08-6.66-.14-1.3-.24-2.61-.3-3.94,0-.04,0-.08,0-.12-.11-2.48-.09-5,.07-7.57,1.93,1.7,3.73,3.47,5.4,5.3.02,1.65.1,3.28.24,4.87.1,1.11.23,2.2.39,3.28.06.42.13.84.2,1.26h0c.04.2.07.4.11.6,1.28,6.94,3.85,13.19,7.66,18.52ZM84.13,81.21c-.05.3-.12.57-.17.78l-.39,1.57-1.56.44c-.3.08-.57.14-.8.18-5.67,1.19-11.18,1.79-16.48,1.79-4.8,0-9.44-.49-13.87-1.47-7.37-1.63-13.9-4.56-19.49-8.73.33-2.23.49-4.49.49-6.77,11.41,10.19,27.97,13.71,47.04,9.98,3.77-19.11.27-35.69-9.92-47.1,2.27,0,4.53-.16,6.76-.49,4.17,5.6,7.1,12.15,8.72,19.53,2.04,9.31,1.92,19.5-.35,30.3Z"/>
          <path class="cls-7" d="M60.82-27.57c-1.43.37-2.86.77-4.27,1.22-.02,0-.03,0-.05.02-6.34,2.02-12.45,4.91-17.68,8.9-1.67,1.27-3.25,2.66-4.73,4.16-.02.03-.05.06-.08.09-.49.5-.97,1.02-1.44,1.55-1.13,1.29-2.18,2.66-3.15,4.12-2.18,3.15-3.98,6.6-5.95,9.95,0,.02-.02.03-.03.05h0c-.33.54-.67,1.09-1.04,1.63-.51.76-1.07,1.51-1.74,2.18,0,0,0,0,0,0-.53.52-1.12.99-1.8,1.37-1.96,1.13-4.16.7-5.86-.52-.19-.13-.36-.28-.53-.44-.09-.08-.17-.16-.25-.24t0,0c-.44-.43-.85-.9-1.17-1.42C7.95.67,6.54-8.71,2-11.79c0,0,0,0-.02-.02-.47-.32-.97-.56-1.52-.74-.51-.19-1-.18-1.48-.07-.65.14-1.31.48-2.02.73-2.52.96-5.16,1.67-7.81,2.19-2.96.65-6.06.92-9.08,1.19-.92.08-1.82.17-2.7.26-.05,0-.1,0-.14.02,1.93.05,3.84.25,5.66.67t.02,0c3.87,1.29,6.23,3.32,7.45,4.55C-6.41.28-5.23,4.07-4.37,6.86c.71,2.3,1.1,4.51,1.44,6.47.52,2.98.5,3.99,1.06,6.62.06.29.12.57.18.84.49,2.26.79,3.52,1.41,4.81.13.27.26.53.41.79,1.69,3.02,4.31,4.86,7.8,7.32,1.44,1.02,2.75,1.79,3.77,2.34.08.04.15.08.22.12.8.43,1.39.71,1.68.85,1.17.55,2.38,1.03,3.8,1.52.46.16.95.32,1.47.48.12.04.19.06.26.08.03,0,.06.02.09.03.05.01.11.03.18.06.03,0,.07.02.11.03,1.12.36,2.03.69,2.65.93.04.02.08.03.12.05.57.82,1.13,1.63,1.69,2.45.25.38.51.77.77,1.18,1.11,1.76,2.25,3.88,3.26,6.36.17.42.33.84.48,1.25,0,.02.02.04.03.07,1.46,3.95,2.09,7.52,2.37,10.26-.87-3.36-3.5-11.56-11.28-17.53-.54-.42-1.08-.8-1.62-1.16h0c-.2-.13-.39-.26-.58-.38-1.92-1.22-3.78-2.08-5.41-2.7-.18-.07-.37-.14-.54-.2h0c-1.7-.68-3.6-1.56-5.57-2.69-3.04-1.74-6.06-3.59-8.32-6.25-.48-.57-.93-1.17-1.33-1.82-.3-.47-.57-.96-.82-1.48-.59-1.26-.96-2.58-1.23-3.92-.12-.6-.22-1.2-.31-1.8-.07-.43-.13-.85-.19-1.27-.22-1.85-.48-3.66-.79-5.45-.06-.58-.15-1.46-.31-2.52-.44-2.9-1.1-5.34-1.45-6.37-1.03-3.12-4.21-8.61-10.06-11.26-1.79-.81-3.57-1.24-5.19-1.46-1.73-.24-3.29-.25-4.51-.26-.98,0-1.88.04-2.68.1-.79.07-1.49.16-2.07.25-.51.06-1.02.11-1.55.15-.56.05-1.11.09-1.64.13.74-.35,1.71-.78,2.86-1.24.43-.17.88-.34,1.36-.51.93-.33,1.97-.67,3.22-1.03.9-.26,1.72-.49,2.58-.7,1.08-.27,2.21-.53,3.6-.79,5.13-.98,10.13-1.84,15.01-3.57.39-.13.77-.27,1.14-.42.79-.29,1.56-.62,2.34-.96,1.72-.87,3.9-1.69,5.89-1.07,1.22.26,2.39.83,3.38,1.53.86.65,1.61,1.38,2.27,2.16C10.5-8.7,12.83-.82,13.96,1.08c.05.09.16.26.34.46.9.98,2.23,1,2.29,1.01,1.11,0,1.87-.59,2.07-.76,0,0,0,0,0,0,.41-.55.8-1.14,1.18-1.75.66-1.06,1.29-2.16,1.92-3.17.15-.25.31-.51.46-.76,1.65-2.7,3.47-5.4,5.57-7.9,1.21-1.44,2.51-2.8,3.91-4.06.49-.45,1-.88,1.51-1.3.99-.81,2.01-1.57,3.06-2.27.6-.4,1.2-.79,1.81-1.16.05-.03.09-.06.14-.09,5.66-3.76,12.99-6.43,22.6-6.89Z"/>
        </g>
      </g>
    </pattern>
  </defs>
  <g id="Layer_1-2" data-name="Layer 1">
    <g>
      <rect class="cls-3" y="3.93" width="2100" height="1400"/>
      <g>
        <g>
          <path class="cls-7" d="M373.15,405.79c-1.95,1.72-3.77,3.51-5.46,5.36-2.52,2.75-4.75,5.64-6.68,8.66-5.44,8.51-8.21,17.6-8.23,27.01v.06c.59-.53,1.17-1.08,1.74-1.64,1.63-1.63,3.12-3.38,4.45-5.25,1.09-6.54,3.71-12.85,7.76-18.72,2.61-3.79,5.56-6.88,6.49-7.83.11-2.5.09-5.06-.07-7.66ZM413.87,429.2s0-.02-.01-.02c0-.02-.02-.04-.03-.07-1.03-2.6-2.3-5.17-3.79-7.69-2.41-.87-4.55-1.48-6.44-1.91-.11-.03-.32-.07-.59-.13-.33-.08-.76-.18-1.29-.32.31.4.61.81.9,1.21.24.33.47.66.7.99,4.05,5.88,6.67,12.19,7.75,18.74,1.33,1.85,2.8,3.6,4.43,5.23.57.57,1.15,1.12,1.75,1.66v-.04c0-6.04-1.13-11.94-3.38-17.65ZM402.38,411.14c-1.69-1.85-3.51-3.64-5.46-5.36-.16,2.6-.18,5.15-.07,7.66.08.08.15.16.23.24.81.44,1.41.72,1.7.85.26.12.52.24.78.36.09.04.17.08.26.11.09.04.18.08.27.11.09.04.18.07.27.11.18.07.37.15.55.22.11.04.21.08.32.12.11.04.23.09.35.13.17.06.34.12.51.18.17.06.35.12.53.18.47.16.96.32,1.48.49.12.04.2.06.26.08.03.01.06.02.09.03.06.02.12.04.18.06.03.01.07.02.11.03.76.23,1.57.51,2.43.84.09.03.17.06.25.09.04.02.08.03.12.05.05.02.11.04.16.06-1.6-2.3-3.38-4.53-5.34-6.67ZM413.87,429.2s0-.02-.01-.02c0-.02-.02-.04-.03-.07-1.03-2.6-2.3-5.17-3.79-7.69-2.41-.87-4.55-1.48-6.44-1.91-.11-.03-.32-.07-.59-.13.06.43.13.85.2,1.27h0c.04.2.07.41.11.61,4.05,5.88,6.67,12.19,7.75,18.74,1.33,1.85,2.8,3.6,4.43,5.23.57.57,1.15,1.12,1.75,1.66v-.04c0-6.04-1.13-11.94-3.38-17.65ZM413.87,429.2s0-.02-.01-.02c0-.02-.02-.04-.03-.07-1.03-2.6-2.3-5.17-3.79-7.69-2.41-.87-4.55-1.48-6.44-1.91-.11-.03-.32-.07-.59-.13.06.43.13.85.2,1.27h0c.04.2.07.41.11.61,4.05,5.88,6.67,12.19,7.75,18.74,1.33,1.85,2.8,3.6,4.43,5.23.57.57,1.15,1.12,1.75,1.66v-.04c0-6.04-1.13-11.94-3.38-17.65ZM384.97,490.02c-16.32-10.97-25.64-25.34-26.51-40.78-1.63,1.63-3.36,3.12-5.19,4.49,1.02,6.99,3.59,13.75,7.7,20.19,5.19,8.14,12.57,15.37,21.93,21.47.19.13.43.29.71.44l1.42.8,1.4-.84c.19-.11.43-.26.68-.44,9.35-6.09,16.72-13.3,21.92-21.42,4.12-6.44,6.71-13.21,7.73-20.2-1.83-1.36-3.56-2.86-5.19-4.49-.88,15.44-10.23,29.82-26.59,40.78ZM413.87,429.2s0-.02-.01-.02c0-.02-.02-.04-.03-.07-1.03-2.6-2.3-5.17-3.79-7.69-2.41-.87-4.55-1.48-6.44-1.91-.11-.03-.32-.07-.59-.13.06.43.13.85.2,1.27h0c.04.2.07.41.11.61,4.05,5.88,6.67,12.19,7.75,18.74,1.33,1.85,2.8,3.6,4.43,5.23.57.57,1.15,1.12,1.75,1.66v-.04c0-6.04-1.13-11.94-3.38-17.65ZM413.87,429.2s0-.02-.01-.02c0-.02-.02-.04-.03-.07-1.03-2.6-2.3-5.17-3.79-7.69-2.41-.87-4.55-1.48-6.44-1.91-.11-.03-.32-.07-.59-.13.06.43.13.85.2,1.27h0c.04.2.07.41.11.61,4.05,5.88,6.67,12.19,7.75,18.74,1.33,1.85,2.8,3.6,4.43,5.23.57.57,1.15,1.12,1.75,1.66v-.04c0-6.04-1.13-11.94-3.38-17.65Z"/>
          <path class="cls-7" d="M380.42,407.05c-2.02,1.55-4.54,3.66-7.2,6.4.11-2.5.09-5.06-.07-7.66,1.36-1.2,2.71-2.29,2.9-2.44.78-.63,1.47-1.16,2.03-1.58.28.83.54,1.54.75,2.07.33.85.67,1.47.87,1.87.27.54.52.99.72,1.34Z"/>
          <path class="cls-7" d="M396.84,413.44c-3.1-3.2-6.32-6.2-9.63-9-.58-.73-1.35-1.87-1.91-3.41-.5-1.39-.66-2.63-.7-3.51.16-.13.33-.26.49-.39l1.38.81c.23.14.48.3.75.49,3.51,2.3,6.74,4.75,9.68,7.36-.16,2.6-.18,5.15-.07,7.66Z"/>
        </g>
        <path class="cls-7" d="M337.84,390.33c-9.87,2.17-18.25,6.64-24.92,13.28h0s-.03.03-.04.05c.79.05,1.59.07,2.39.07,2.31,0,4.59-.19,6.85-.56h0c5.39-3.86,11.71-6.46,18.73-7.75,0,0,0,0,0,0,2.71-1.86,5.32-4.03,7.83-6.48-3.73.16-7.34.63-10.84,1.4ZM373.15,405.79c-1.95,1.72-3.77,3.51-5.46,5.36-.04,3.51-.36,6.89-.95,10.13-1.29,7.02-3.9,13.33-7.76,18.72-.37,2.25-.57,4.53-.57,6.83,0,.81.02,1.61.07,2.41l.02-.02c6.66-6.66,11.14-15.03,13.32-24.9.77-3.5,1.25-7.13,1.41-10.87.11-2.5.09-5.06-.07-7.66ZM352.78,446.89c-11.54,10.3-28.32,13.85-47.64,10.03-3.78-19.29-.21-36.04,10.09-47.58-2.3,0-4.58-.17-6.84-.5h0c-4.22,5.66-7.18,12.26-8.83,19.72-2.09,9.43-1.98,19.75.32,30.69.05.24.1.51.19.81l.44,1.57,1.59.4c.21.05.49.12.79.17,5.76,1.21,11.34,1.82,16.72,1.82,4.82,0,9.47-.49,13.93-1.47,7.47-1.64,14.09-4.6,19.75-8.82-.33-2.26-.49-4.54-.5-6.84Z"/>
        <g>
          <path class="cls-7" d="M340.85,395.41s0,0,0,0c-5.88,4.05-12.19,6.67-18.73,7.75h0c-1.86,1.33-3.6,2.8-5.23,4.43-.57.57-1.12,1.15-1.66,1.75h.04c9.41,0,18.5-2.76,27.02-8.19,3.03-1.93,5.93-4.16,8.69-6.69-3.51.04-6.89.35-10.12.95ZM340.85,395.41s0,0,0,0c-5.88,4.05-12.19,6.67-18.73,7.75h0c-1.86,1.33-3.6,2.8-5.23,4.43-.57.57-1.12,1.15-1.66,1.75h.04c9.41,0,18.5-2.76,27.02-8.19,3.03-1.93,5.93-4.16,8.69-6.69-3.51.04-6.89.35-10.12.95ZM312.87,350.55c-1.63-1.63-3.12-3.36-4.48-5.19-6.99,1.02-13.75,3.59-20.19,7.7-8.14,5.19-15.37,12.57-21.47,21.93-.13.2-.29.43-.44.7l-.8,1.42.84,1.4c.11.18.26.43.44.67,6.09,9.35,13.3,16.72,21.42,21.92,6.44,4.12,13.21,6.71,20.2,7.73h0c1.36-1.83,2.86-3.56,4.48-5.19-15.44-.87-29.81-10.23-40.78-26.59,10.97-16.31,25.34-25.64,40.78-26.51ZM342.3,353.09c-8.51-5.44-17.6-8.21-27.01-8.23h-.06c.53.59,1.08,1.17,1.64,1.74,1.63,1.63,3.38,3.11,5.24,4.45,6.54,1.09,12.85,3.71,18.73,7.76,3.23.6,6.61.92,10.12.95-2.75-2.52-5.64-4.75-8.66-6.68Z"/>
          <path class="cls-7" d="M356.34,389c-1.72,1.95-3.51,3.77-5.36,5.46-3.51.04-6.89.35-10.12.95,2.71-1.86,5.32-4.03,7.83-6.48,2.5-.11,5.06-.09,7.66.07Z"/>
        </g>
        <path class="cls-7" d="M333.56,291.64c-9.43-2.09-19.75-1.98-30.69.32-.23.05-.51.1-.81.19l-1.57.44-.4,1.59c-.05.21-.12.49-.17.79-2.3,10.92-2.42,21.23-.36,30.64,1.64,7.47,4.6,14.09,8.82,19.75,2.26-.33,4.54-.49,6.84-.5-10.3-11.54-13.85-28.32-10.03-47.64,19.29-3.78,36.04-.21,47.58,10.09,0-2.3.17-4.58.5-6.84-5.66-4.22-12.26-7.18-19.72-8.83ZM322.11,351.05c-2.25-.37-4.53-.57-6.83-.57h-.03c-.8,0-1.6.02-2.39.07,0,0,.02.02.03.03,6.65,6.65,15.03,11.14,24.9,13.32,3.51.77,7.14,1.25,10.87,1.41-2.51-2.46-5.12-4.62-7.83-6.49-7.02-1.29-13.34-3.9-18.73-7.76ZM373.19,340.77c-.16-3.73-.63-7.35-1.4-10.84-2.17-9.87-6.64-18.25-13.28-24.92h0s-.03-.03-.04-.04c-.05.79-.07,1.59-.07,2.39,0,2.31.19,4.59.56,6.85,3.86,5.4,6.46,11.71,7.75,18.74.59,3.23.91,6.61.95,10.12,1.69,1.85,3.51,3.64,5.46,5.36.16-2.6.18-5.15.07-7.66ZM340.84,358.82c-7.02-1.29-13.34-3.9-18.73-7.76-2.25-.37-4.53-.57-6.83-.57h-.03c-.8,0-1.6.02-2.39.07,0,0,.02.02.03.03,6.65,6.65,15.03,11.14,24.9,13.32,3.51.77,7.14,1.25,10.87,1.41-2.51-2.46-5.12-4.62-7.83-6.49Z"/>
        <path class="cls-7" d="M356.32,365.23c-1.52.09-3.03.14-4.52.14-1.05,0-2.1-.02-3.14-.07-2.51-2.46-5.12-4.62-7.83-6.49,3.23.6,6.61.92,10.12.95,1.85,1.69,3.64,3.51,5.36,5.46Z"/>
        <path class="cls-7" d="M415.52,308.96c-1.63,1.63-3.12,3.38-4.45,5.24h0c-1.09,6.55-3.71,12.85-7.76,18.73h0c-1.86,2.71-4.03,5.32-6.49,7.83-3.4,3.47-7.35,6.73-11.82,9.73-4.47-3-8.41-6.26-11.8-9.72-2.46-2.51-4.62-5.12-6.48-7.83-4.05-5.88-6.67-12.19-7.75-18.74-1.33-1.85-2.8-3.6-4.43-5.23-.57-.57-1.15-1.12-1.75-1.66v.04c0,9.41,2.76,18.5,8.19,27.02,1.93,3.03,4.16,5.92,6.69,8.69,1.69,1.85,3.51,3.64,5.46,5.36,2.94,2.6,6.17,5.06,9.68,7.35.27.19.52.35.75.49l1.38.81,1.4-.78c.25-.14.46-.28.63-.39l.14-.09c3.54-2.31,6.8-4.78,9.77-7.41,1.95-1.72,3.77-3.51,5.46-5.36,2.52-2.75,4.75-5.64,6.68-8.66,5.44-8.51,8.21-17.6,8.23-27.01v-.07c-.59.53-1.17,1.08-1.74,1.64ZM396.81,340.76c-3.4,3.47-7.35,6.73-11.82,9.73-4.47-3-8.41-6.26-11.8-9.72-2.46-2.51-4.62-5.12-6.48-7.83-4.05-5.88-6.67-12.19-7.75-18.74-1.33-1.85-2.8-3.6-4.43-5.23-.57-.57-1.15-1.12-1.75-1.66v.04c0,9.41,2.76,18.5,8.19,27.02,1.93,3.03,4.16,5.92,6.69,8.69,1.69,1.85,3.51,3.64,5.46,5.36,2.94,2.6,6.17,5.06,9.68,7.35.27.19.52.35.75.49l1.38.81,1.4-.78c.25-.14.46-.28.63-.39l.14-.09c3.54-2.31,6.8-4.78,9.77-7.41-.16-2.6-.18-5.15-.07-7.65ZM409.06,280.29c-5.19-8.14-12.57-15.37-21.93-21.47-.19-.13-.43-.29-.7-.44l-1.42-.8-1.4.84c-.19.11-.43.26-.68.44-9.35,6.09-16.72,13.3-21.92,21.42-4.12,6.44-6.71,13.21-7.73,20.2,1.83,1.36,3.56,2.86,5.19,4.49.87-15.45,10.23-29.82,26.59-40.78,16.32,10.97,25.64,25.34,26.51,40.78,1.63-1.63,3.36-3.12,5.19-4.49-1.02-6.99-3.59-13.75-7.7-20.19ZM396.81,340.76c-3.4,3.47-7.35,6.73-11.82,9.73-4.47-3-8.41-6.26-11.8-9.72-2.46-2.51-4.62-5.12-6.48-7.83-4.05-5.88-6.67-12.19-7.75-18.74-1.33-1.85-2.8-3.6-4.43-5.23-.57-.57-1.15-1.12-1.75-1.66v.04c0,9.41,2.76,18.5,8.19,27.02,1.93,3.03,4.16,5.92,6.69,8.69,1.69,1.85,3.51,3.64,5.46,5.36,2.94,2.6,6.17,5.06,9.68,7.35.27.19.52.35.75.49l1.38.81,1.4-.78c.25-.14.46-.28.63-.39l.14-.09c3.54-2.31,6.8-4.78,9.77-7.41-.16-2.6-.18-5.15-.07-7.65Z"/>
        <path class="cls-7" d="M454.77,350.48c-2.31,0-4.6.19-6.86.56-5.39,3.86-11.71,6.46-18.73,7.75-1.6.29-3.23.52-4.89.68-1.71.16-3.45.25-5.23.27-.15,0-.29,0-.44,0-.52.42-1.03.86-1.53,1.31-1.42,1.27-2.74,2.66-3.96,4.11.19.01.38.02.56.04,1.44.09,2.87.14,4.28.14h.26c1.05,0,2.09-.02,3.12-.07,3.73-.16,7.34-.63,10.84-1.4,9.87-2.17,18.25-6.64,24.92-13.28h0s.03-.03.04-.05c-.79-.05-1.59-.07-2.39-.07ZM411.54,304.98c-6.66,6.65-11.14,15.03-13.32,24.9-.77,3.51-1.25,7.14-1.41,10.87-.11,2.5-.09,5.06.07,7.65,1.95-1.72,3.77-3.51,5.46-5.36.04-3.51.36-6.89.95-10.12h0c1.29-7.02,3.9-13.34,7.76-18.73h0c.37-2.25.57-4.53.57-6.83v-.03c0-.8-.02-1.59-.07-2.38l-.02.02ZM470.16,294.95c-.05-.24-.1-.51-.19-.81l-.44-1.57-1.59-.4c-.21-.05-.49-.12-.79-.17-10.92-2.3-21.23-2.42-30.64-.36-7.47,1.64-14.09,4.6-19.75,8.82.33,2.26.49,4.54.5,6.84,11.54-10.3,28.32-13.85,47.64-10.03,3.78,19.29.21,36.05-10.09,47.58,2.3,0,4.58.17,6.84.5,4.22-5.66,7.18-12.26,8.83-19.72,2.09-9.43,1.98-19.76-.32-30.69ZM411.54,304.98c-6.66,6.65-11.14,15.03-13.32,24.9-.77,3.51-1.25,7.14-1.41,10.87-.11,2.5-.09,5.06.07,7.65,1.95-1.72,3.77-3.51,5.46-5.36.04-3.51.36-6.89.95-10.12h0c1.29-7.02,3.9-13.34,7.76-18.73h0c.37-2.25.57-4.53.57-6.83v-.03c0-.8-.02-1.59-.07-2.38l-.02.02Z"/>
        <g>
          <path class="cls-7" d="M453.16,407.6c-1.63-1.63-3.38-3.12-5.24-4.45-6.54-1.09-12.85-3.71-18.72-7.76-2.71-1.86-5.32-4.03-7.83-6.49-2.5-.11-5.06-.09-7.65.07,1.72,1.95,3.51,3.77,5.36,5.46,2.75,2.52,5.64,4.75,8.66,6.68,8.51,5.44,17.6,8.21,27.01,8.23h.06c-.53-.59-1.08-1.17-1.64-1.74ZM454.77,344.86c-9.41,0-18.5,2.76-27.02,8.19-2.07,1.32-4.09,2.79-6.04,4.39.6-.41,1.21-.8,1.83-1.17.05-.03.09-.06.14-.09,5.72-3.8,13.14-6.51,22.85-6.97-1.44.38-2.89.78-4.32,1.24-.02,0-.03.01-.05.02-.54.17-1.07.35-1.6.53-.26.09-.51.18-.77.27-.21.07-.41.15-.62.22-.2.07-.4.14-.59.22-.9.34-1.79.7-2.67,1.08-.14.06-.28.12-.43.18-3.52,1.54-6.89,3.39-9.98,5.6-.08.06-.16.11-.24.17-.33.24-.66.48-.98.73-.37.28-.73.57-1.09.86-.11.09-.21.17-.32.26-.36.29-.71.59-1.05.9-.2.17-.4.35-.59.53-.19.17-.37.34-.55.51-.03.02-.05.05-.07.07-.16.16-.33.32-.49.47-.02.02-.05.05-.07.07-.18.18-.36.36-.53.54-.02.03-.05.06-.08.09-.23.23-.46.47-.68.71-.05.05-.1.1-.15.16-.07.07-.13.14-.2.22-.14.16-.28.32-.43.48-.14.16-.28.33-.43.49-.04.05-.09.1-.13.15-.09.1-.17.2-.25.31-.45.55-.89,1.11-1.31,1.69-.11.14-.21.29-.32.44-.1.14-.2.29-.31.44-.15.22-.3.43-.44.65-2.2,3.19-4.02,6.68-6.02,10.06,0,.02-.02.03-.03.05h0c-.34.54-.68,1.1-1.05,1.65.02.03.04.06.06.08.79-1.08,1.59-2.17,2.39-3.26.52-.7,1.04-1.41,1.56-2.11,2.17-2.86,5.35-6.67,9.66-10.71,1.77-1.66,4.43-4.15,7.83-6.48,5.88-4.05,12.19-6.67,18.73-7.75,1.86-1.33,3.61-2.8,5.24-4.43.57-.57,1.12-1.15,1.66-1.75h-.04ZM503.71,375.69c-.11-.19-.26-.43-.44-.67-6.09-9.35-13.3-16.72-21.42-21.92-6.44-4.12-13.21-6.71-20.2-7.73-1.36,1.83-2.86,3.56-4.49,5.19,15.45.87,29.82,10.23,40.78,26.59-10.97,16.32-25.34,25.64-40.78,26.51,1.63,1.63,3.12,3.36,4.49,5.19,6.98-1.02,13.75-3.59,20.19-7.7,8.14-5.19,15.37-12.57,21.47-21.93.13-.2.29-.43.44-.7l.8-1.42-.84-1.4ZM427.75,353.05c-2.07,1.32-4.09,2.79-6.04,4.39.6-.41,1.21-.8,1.83-1.17.05-.03.09-.06.14-.09,5.72-3.8,13.14-6.51,22.85-6.97-1.44.38-2.89.78-4.32,1.24-.02,0-.03.01-.05.02-.54.17-1.07.35-1.6.53-.26.09-.51.18-.77.27-.21.07-.41.15-.62.22-.2.07-.4.14-.59.22-.9.34-1.79.7-2.67,1.08-.14.06-.28.12-.43.18-3.52,1.54-6.89,3.39-9.98,5.6-.08.06-.16.11-.24.17-.33.24-.66.48-.98.73-.37.28-.73.57-1.09.86-.11.09-.21.17-.32.26-.36.29-.71.59-1.05.9-.2.17-.4.35-.59.53-.19.17-.37.34-.55.51-.03.02-.05.05-.07.07-.16.16-.33.32-.49.47-.02.02-.05.05-.07.07-.18.18-.36.36-.53.54-.02.03-.05.06-.08.09-.23.23-.46.47-.68.71-.05.05-.1.1-.15.16-.07.07-.13.14-.2.22-.14.16-.28.32-.43.48-.14.16-.28.33-.43.49-.04.05-.09.1-.13.15-.09.1-.17.2-.25.31-.45.55-.89,1.11-1.31,1.69-.11.14-.21.29-.32.44-.1.14-.2.29-.31.44-.15.22-.3.43-.44.65-2.2,3.19-4.02,6.68-6.02,10.06,0,.02-.02.03-.03.05h0c-.34.54-.68,1.1-1.05,1.65.02.03.04.06.06.08.79-1.08,1.59-2.17,2.39-3.26.52-.7,1.04-1.41,1.56-2.11,2.17-2.86,5.35-6.67,9.66-10.71,1.77-1.66,4.43-4.15,7.83-6.48,5.88-4.05,12.19-6.67,18.73-7.75,1.86-1.33,3.61-2.8,5.24-4.43.57-.57,1.12-1.15,1.66-1.75h-.04c-9.41,0-18.5,2.76-27.02,8.19ZM447.92,403.15c-6.54-1.09-12.85-3.71-18.72-7.76-2.71-1.86-5.32-4.03-7.83-6.49-2.5-.11-5.06-.09-7.65.07,1.72,1.95,3.51,3.77,5.36,5.46,2.75,2.52,5.64,4.75,8.66,6.68,8.51,5.44,17.6,8.21,27.01,8.23h.06c-.53-.59-1.08-1.17-1.64-1.74-1.63-1.63-3.38-3.12-5.24-4.45ZM406.34,374.89c-.19.27-.35.52-.49.76l-.81,1.38.06.1c.67-1.07,1.31-2.19,1.94-3.21.15-.26.31-.51.47-.77-.39.57-.78,1.15-1.16,1.73ZM454.77,344.86c-9.41,0-18.5,2.76-27.02,8.19-2.07,1.32-4.09,2.79-6.04,4.39.6-.41,1.21-.8,1.83-1.17.05-.03.09-.06.14-.09,5.72-3.8,13.14-6.51,22.85-6.97-1.44.38-2.89.78-4.32,1.24-.02,0-.03.01-.05.02-.54.17-1.07.35-1.6.53-.26.09-.51.18-.77.27-.21.07-.41.15-.62.22-.2.07-.4.14-.59.22-.9.34-1.79.7-2.67,1.08-.14.06-.28.12-.43.18-3.52,1.54-6.89,3.39-9.98,5.6-.08.06-.16.11-.24.17-.33.24-.66.48-.98.73-.37.28-.73.57-1.09.86-.11.09-.21.17-.32.26-.36.29-.71.59-1.05.9-.2.17-.4.35-.59.53-.19.17-.37.34-.55.51-.03.02-.05.05-.07.07-.16.16-.33.32-.49.47-.02.02-.05.05-.07.07-.18.18-.36.36-.53.54-.02.03-.05.06-.08.09-.23.23-.46.47-.68.71-.05.05-.1.1-.15.16-.07.07-.13.14-.2.22-.14.16-.28.32-.43.48-.14.16-.28.33-.43.49-.04.05-.09.1-.13.15-.09.1-.17.2-.25.31-.45.55-.89,1.11-1.31,1.69-.11.14-.21.29-.32.44-.1.14-.2.29-.31.44-.15.22-.3.43-.44.65-2.2,3.19-4.02,6.68-6.02,10.06,0,.02-.02.03-.03.05h0c-.34.54-.68,1.1-1.05,1.65.02.03.04.06.06.08.79-1.08,1.59-2.17,2.39-3.26.52-.7,1.04-1.41,1.56-2.11,2.17-2.86,5.35-6.67,9.66-10.71,1.77-1.66,4.43-4.15,7.83-6.48,5.88-4.05,12.19-6.67,18.73-7.75,1.86-1.33,3.61-2.8,5.24-4.43.57-.57,1.12-1.15,1.66-1.75h-.04ZM453.16,407.6c-1.63-1.63-3.38-3.12-5.24-4.45-6.54-1.09-12.85-3.71-18.72-7.76-2.71-1.86-5.32-4.03-7.83-6.49-2.5-.11-5.06-.09-7.65.07,1.72,1.95,3.51,3.77,5.36,5.46,2.75,2.52,5.64,4.75,8.66,6.68,8.51,5.44,17.6,8.21,27.01,8.23h.06c-.53-.59-1.08-1.17-1.64-1.74Z"/>
          <path class="cls-7" d="M421.36,388.9c-2.5-.11-5.06-.09-7.65.07-1.74-1.96-3.41-4.06-5.02-6.28,1.23-1.51,2.45-3.02,3.68-4.53,2.8,4.03,5.81,7.62,8.99,10.74Z"/>
        </g>
        <path class="cls-7" d="M457.13,403.63c-6.65-6.65-15.03-11.14-24.9-13.32-3.5-.77-7.13-1.25-10.88-1.41-2.5-.11-5.06-.09-7.65.07,1.72,1.95,3.51,3.77,5.36,5.46,3.51.04,6.89.36,10.13.95,7.02,1.3,13.33,3.9,18.72,7.76,2.25.38,4.53.57,6.83.57h.02c.8,0,1.59-.02,2.39-.07,0,0-.02-.02-.03-.03ZM403.32,421.26c-.04-.2-.07-.4-.11-.61h0c-.07-.42-.14-.85-.2-1.27-.16-1.09-.29-2.19-.39-3.31-.15-1.61-.23-3.26-.24-4.93-1.69-1.85-3.51-3.64-5.46-5.36-.16,2.6-.18,5.15-.07,7.66,0,.04,0,.08,0,.12.06,1.34.16,2.67.3,3.99.24,2.29.61,4.54,1.09,6.73,2.17,9.87,6.64,18.25,13.28,24.92h0s.04.05.04.05c.05-.79.07-1.59.07-2.39,0-2.31-.19-4.59-.56-6.85-3.86-5.4-6.46-11.71-7.75-18.74ZM470.46,428.6c-1.64-7.47-4.6-14.09-8.82-19.75-2.26.33-4.54.49-6.84.5,10.3,11.54,13.85,28.32,10.03,47.64-19.29,3.78-36.04.21-47.58-10.09,0,2.3-.17,4.58-.5,6.84,5.66,4.22,12.26,7.18,19.72,8.83,4.48.99,9.17,1.49,14.03,1.49,5.36,0,10.93-.6,16.66-1.81.23-.04.51-.1.81-.18l1.57-.44.4-1.59c.05-.21.12-.48.17-.79,2.3-10.92,2.42-21.23.36-30.64Z"/>
        <path class="cls-7" d="M383.88,368.27c1.5,0,2.72,1.22,2.72,2.72s-1.22,2.72-2.72,2.72-2.72-1.22-2.72-2.72,1.21-2.72,2.72-2.72Z"/>
        <path class="cls-7" d="M446.53,349.21c-1.44.38-2.89.78-4.32,1.24-.02,0-.03.01-.05.02-6.42,2.05-12.59,4.97-17.88,9-1.69,1.29-3.29,2.69-4.78,4.21-.02.03-.05.06-.08.09-.5.51-.99,1.03-1.45,1.57-1.15,1.3-2.21,2.69-3.18,4.17-2.2,3.19-4.02,6.68-6.02,10.06,0,.02-.02.03-.03.05h0c-.34.54-.68,1.1-1.05,1.65-.52.77-1.09,1.53-1.76,2.2,0,0,0,0,0,0-.53.52-1.13,1-1.82,1.39-1.98,1.14-4.21.71-5.92-.52-.19-.13-.37-.28-.54-.45-.09-.08-.17-.16-.26-.25t-.01-.01c-.45-.43-.86-.91-1.18-1.44-3.13-4.42-4.56-13.9-9.15-17.01,0,0,0-.01-.02-.02-.48-.32-.98-.57-1.53-.74-.52-.19-1.01-.18-1.5-.07-.66.15-1.32.49-2.04.74-2.55.97-5.22,1.69-7.9,2.21-2.99.66-6.13.93-9.18,1.2-.93.08-1.84.17-2.74.27-.05,0-.1,0-.15.02,1.95.05,3.88.26,5.73.68t.02,0c3.91,1.3,6.31,3.36,7.53,4.6,3.26,3.31,4.45,7.14,5.32,9.96.72,2.33,1.11,4.57,1.46,6.55.53,3.01.51,4.04,1.08,6.69.06.3.12.58.18.84.49,2.28.8,3.56,1.42,4.87.13.27.27.54.41.8,1.71,3.06,4.35,4.92,7.89,7.4,1.46,1.03,2.78,1.81,3.81,2.37.08.04.15.08.23.12.81.44,1.41.72,1.7.85,1.18.56,2.41,1.05,3.84,1.54.47.16.96.32,1.48.49.12.04.2.06.26.08.03.01.06.02.09.03.05.01.11.03.18.06.03.01.07.02.11.03,1.13.36,2.05.7,2.69.94.04.02.08.03.12.05.57.82,1.14,1.65,1.71,2.48.26.38.52.78.78,1.2,1.12,1.78,2.28,3.93,3.3,6.43.17.42.34.84.49,1.26,0,.02.02.04.03.07,1.48,4,2.12,7.61,2.39,10.38-.88-3.4-3.54-11.69-11.4-17.73-.55-.42-1.1-.81-1.64-1.17h0c-.2-.13-.4-.26-.59-.38-1.94-1.23-3.82-2.1-5.47-2.73-.19-.07-.37-.14-.55-.2h0c-1.72-.69-3.64-1.58-5.63-2.72-3.07-1.76-6.13-3.63-8.41-6.33-.49-.57-.94-1.19-1.35-1.84-.3-.48-.58-.98-.83-1.5-.6-1.28-.98-2.61-1.25-3.96-.12-.61-.22-1.22-.32-1.82-.07-.43-.14-.86-.19-1.28-.22-1.87-.49-3.7-.8-5.51-.06-.59-.15-1.47-.32-2.55-.45-2.93-1.12-5.4-1.46-6.44-1.05-3.15-4.25-8.71-10.18-11.39-1.81-.82-3.61-1.25-5.25-1.48-1.75-.24-3.32-.25-4.57-.26-.99,0-1.9.04-2.71.1-.8.07-1.51.16-2.1.25-.51.06-1.03.11-1.56.16-.56.05-1.12.09-1.66.13.74-.35,1.73-.79,2.9-1.25.44-.17.89-.34,1.38-.52.94-.34,1.99-.68,3.26-1.04.91-.26,1.74-.49,2.61-.71,1.09-.28,2.24-.53,3.64-.8,5.19-.99,10.25-1.86,15.19-3.61.4-.14.78-.27,1.16-.42.8-.3,1.58-.62,2.37-.97,1.74-.88,3.95-1.71,5.96-1.08,1.23.27,2.41.83,3.41,1.55.87.66,1.63,1.4,2.3,2.19,3.46,4.08,5.81,12.05,6.96,13.97.05.09.16.27.35.47.91.99,2.26,1.02,2.31,1.02,1.12,0,1.89-.59,2.09-.77,0,0,0,0,0-.01.41-.56.81-1.15,1.19-1.77.67-1.07,1.31-2.19,1.94-3.21.15-.26.31-.51.47-.77,1.67-2.73,3.51-5.46,5.63-7.99,1.22-1.45,2.53-2.84,3.96-4.11.5-.45,1.01-.89,1.53-1.31,1-.82,2.03-1.58,3.09-2.3.6-.41,1.21-.8,1.83-1.17.05-.03.09-.06.14-.09,5.72-3.8,13.14-6.51,22.85-6.97Z"/>
      </g>
      <text class="cls-5" transform="translate(1609.44 222.87)"><tspan x="0" y="0">Elegant</tspan></text>
      <rect class="cls-9" y="5.36" width="1162.92" height="1400"/>
      <text class="cls-6" transform="translate(994.03 701.96)"><tspan x="0" y="0">Timeless</tspan></text>
      <text class="cls-4" transform="translate(1132.07 1210.74)"><tspan class="cls-8" x="0" y="0">R</tspan><tspan class="cls-2" x="76.88" y="0">adiant</tspan></text>
    </g>
  </g>
</svg>