<?xml version="1.0" encoding="UTF-8"?>
<svg id="Layer_2" data-name="Layer 2" xmlns="http://www.w3.org/2000/svg" xmlns:xlink="http://www.w3.org/1999/xlink" viewBox="0 0 69.68 74.19">
  <defs>
    <style>
      .cls-1 {
        fill: #fff;
      }

      .cls-2 {
        clip-path: url(#clippath);
      }
    </style>
    <clipPath id="clippath">
      <polygon id="SVGID-2" data-name="SVGID" class="cls-1" points="27.58 74.19 42.06 74.19 34.55 59.46 27.58 74.19"/>
    </clipPath>
  </defs>
  <g id="Layer_1-2" data-name="Layer 1">
    <g>
      <g>
        <polygon id="SVGID" class="cls-1" points="27.58 74.19 42.06 74.19 34.55 59.46 27.58 74.19"/>
        <g class="cls-2">
          <rect class="cls-1" x="27.58" y="59.46" width="14.48" height="14.72"/>
        </g>
      </g>
      <path class="cls-1" d="M55.52,68.41l-6.41,3.24-1.62-3.21c-4.38-8.69-8.77-17.37-13.16-26.06-4.06,8.62-8.1,17.24-12.15,25.87l-1.52,3.25-6.5-3.05,1.52-3.25c5.09-10.85,10.18-21.7,15.28-32.54l3.13-6.67,3.32,6.57c5.5,10.88,11,21.76,16.49,32.64l1.62,3.21Z"/>
      <path class="cls-1" d="M69.68,64.94l-6.41,3.23-1.62-3.2c-9.29-18.39-18.58-36.76-27.87-55.15L6.5,67.94l-6.5-3.05L30.26.42c.05-.11.1-.22.15-.33l6.46-.09c10.39,20.58,20.79,41.15,31.19,61.73l1.62,3.21Z"/>
    </g>
  </g>
</svg>