<?xml version="1.0" encoding="UTF-8"?>
<svg id="Layer_2" data-name="Layer 2" xmlns="http://www.w3.org/2000/svg" xmlns:xlink="http://www.w3.org/1999/xlink" viewBox="0 0 76.67 76.67">
  <defs>
    <style>
      .cls-1 {
        fill: #181919;
      }

      .cls-2 {
        fill: #fff;
      }

      .cls-3 {
        clip-path: url(#clippath);
      }
    </style>
    <clipPath id="clippath">
      <polygon id="SVGID-2" data-name="SVGID" class="cls-2" points="32.99 65.64 43.65 65.64 38.12 54.8 32.99 65.64"/>
    </clipPath>
  </defs>
  <g id="Layer_1-2" data-name="Layer 1">
    <g>
      <rect class="cls-1" width="76.67" height="76.67" rx="11.33" ry="11.33"/>
      <g>
        <g>
          <polygon id="SVGID" class="cls-2" points="32.99 65.64 43.65 65.64 38.12 54.8 32.99 65.64"/>
          <g class="cls-3">
            <rect class="cls-2" x="32.99" y="54.8" width="10.66" height="10.84"/>
          </g>
        </g>
        <path class="cls-2" d="M53.56,61.39l-4.72,2.39-1.19-2.36c-3.22-6.4-6.46-12.79-9.69-19.18-2.99,6.35-5.96,12.69-8.94,19.04l-1.12,2.39-4.78-2.25,1.12-2.39c3.75-7.99,7.49-15.97,11.25-23.95l2.3-4.91,2.44,4.84c4.05,8.01,8.1,16.02,12.14,24.03l1.19,2.36Z"/>
        <path class="cls-2" d="M63.98,58.83l-4.72,2.38-1.19-2.36c-6.84-13.54-13.68-27.06-20.52-40.6l-20.08,42.78-4.78-2.25L34.96,11.34c.04-.08.07-.16.11-.24l4.76-.07c7.65,15.15,15.3,30.29,22.96,45.44l1.19,2.36Z"/>
      </g>
    </g>
  </g>
</svg>